<svg xmlns="http://www.w3.org/2000/svg" xmlns:xlink="http://www.w3.org/1999/xlink" viewBox="0 0 600 400"><defs><linearGradient id="linear-gradient" x1="565.11" y1="221.92" x2="-35.06" y2="243.68" gradientTransform="matrix(-1 0 0 1 600 0)" gradientUnits="userSpaceOnUse"><stop offset="0" stop-color="#6318ff"/><stop offset="1" stop-color="#13ffe2"/></linearGradient><linearGradient id="linear-gradient-2" x1="328.21" y1="288.78" x2="537.63" y2="288.78" gradientTransform="rotate(1.6 401.164 259.426)" xlink:href="#linear-gradient"/><linearGradient id="linear-gradient-3" x1="328.92" y1="288.78" x2="536.92" y2="288.78" gradientTransform="rotate(1.6 401.164 259.426)" xlink:href="#linear-gradient"/><linearGradient id="linear-gradient-4" x1="329.62" y1="288.78" x2="536.22" y2="288.78" gradientTransform="rotate(1.6 401.164 259.426)" xlink:href="#linear-gradient"/><linearGradient id="linear-gradient-5" x1="330.32" y1="288.78" x2="535.52" y2="288.78" gradientTransform="rotate(1.6 401.164 259.426)" xlink:href="#linear-gradient"/><linearGradient id="linear-gradient-6" x1="331.03" y1="288.78" x2="534.81" y2="288.78" gradientTransform="rotate(1.6 401.164 259.426)" xlink:href="#linear-gradient"/><linearGradient id="linear-gradient-7" x1="331.73" y1="288.78" x2="534.11" y2="288.78" gradientTransform="rotate(1.6 401.164 259.426)" xlink:href="#linear-gradient"/><linearGradient id="linear-gradient-8" x1="332.44" y1="288.78" x2="533.41" y2="288.78" gradientTransform="rotate(1.6 401.164 259.426)" xlink:href="#linear-gradient"/><linearGradient id="linear-gradient-9" x1="333.14" y1="288.78" x2="532.7" y2="288.78" gradientTransform="rotate(1.6 401.164 259.426)" xlink:href="#linear-gradient"/><linearGradient id="linear-gradient-10" x1="333.84" y1="288.78" x2="532" y2="288.78" gradientTransform="rotate(1.6 401.164 259.426)" xlink:href="#linear-gradient"/><linearGradient id="linear-gradient-11" x1="334.55" y1="288.78" x2="531.29" y2="288.78" gradientTransform="rotate(1.6 401.164 259.426)" xlink:href="#linear-gradient"/><linearGradient id="linear-gradient-12" x1="335.25" y1="288.78" x2="530.59" y2="288.78" gradientTransform="rotate(1.6 401.164 259.426)" xlink:href="#linear-gradient"/><linearGradient id="linear-gradient-13" x1="335.96" y1="288.78" x2="529.89" y2="288.78" gradientTransform="rotate(1.6 401.164 259.426)" xlink:href="#linear-gradient"/><linearGradient id="linear-gradient-14" x1="336.66" y1="288.78" x2="529.18" y2="288.78" gradientTransform="rotate(1.6 401.164 259.426)" xlink:href="#linear-gradient"/><linearGradient id="linear-gradient-15" x1="337.36" y1="288.78" x2="528.48" y2="288.78" gradientTransform="rotate(1.6 401.164 259.426)" xlink:href="#linear-gradient"/><linearGradient id="linear-gradient-16" x1="338.07" y1="288.78" x2="527.77" y2="288.78" gradientTransform="rotate(1.6 401.164 259.426)" xlink:href="#linear-gradient"/><linearGradient id="linear-gradient-17" x1="338.77" y1="288.78" x2="527.07" y2="288.78" gradientTransform="rotate(1.6 401.164 259.426)" xlink:href="#linear-gradient"/><linearGradient id="linear-gradient-18" x1="339.48" y1="288.78" x2="526.37" y2="288.78" gradientTransform="rotate(1.6 401.164 259.426)" xlink:href="#linear-gradient"/><linearGradient id="linear-gradient-19" x1="340.18" y1="288.78" x2="525.66" y2="288.78" gradientTransform="rotate(1.6 401.164 259.426)" xlink:href="#linear-gradient"/><linearGradient id="linear-gradient-20" x1="340.88" y1="288.78" x2="524.96" y2="288.78" gradientTransform="rotate(1.6 401.164 259.426)" xlink:href="#linear-gradient"/><linearGradient id="linear-gradient-21" x1="341.59" y1="288.78" x2="524.25" y2="288.78" gradientTransform="rotate(1.6 401.164 259.426)" xlink:href="#linear-gradient"/><linearGradient id="linear-gradient-22" x1="342.29" y1="288.78" x2="523.55" y2="288.78" gradientTransform="rotate(1.6 401.164 259.426)" xlink:href="#linear-gradient"/><linearGradient id="linear-gradient-23" x1="343" y1="288.78" x2="522.85" y2="288.78" gradientTransform="rotate(1.6 401.164 259.426)" xlink:href="#linear-gradient"/><linearGradient id="linear-gradient-24" x1="343.7" y1="288.78" x2="522.14" y2="288.78" gradientTransform="rotate(1.6 401.164 259.426)" xlink:href="#linear-gradient"/><linearGradient id="linear-gradient-25" x1="344.4" y1="288.78" x2="521.44" y2="288.78" gradientTransform="rotate(1.6 401.164 259.426)" xlink:href="#linear-gradient"/><linearGradient id="linear-gradient-26" x1="345.11" y1="288.78" x2="520.73" y2="288.78" gradientTransform="rotate(1.6 401.164 259.426)" xlink:href="#linear-gradient"/><linearGradient id="linear-gradient-27" x1="345.81" y1="288.78" x2="520.03" y2="288.78" gradientTransform="rotate(1.6 401.164 259.426)" xlink:href="#linear-gradient"/><linearGradient id="linear-gradient-28" x1="346.52" y1="288.78" x2="519.33" y2="288.78" gradientTransform="rotate(1.6 401.164 259.426)" xlink:href="#linear-gradient"/><linearGradient id="linear-gradient-29" x1="347.22" y1="288.78" x2="518.62" y2="288.78" gradientTransform="rotate(1.6 401.164 259.426)" xlink:href="#linear-gradient"/><linearGradient id="linear-gradient-30" x1="347.92" y1="288.78" x2="517.92" y2="288.78" gradientTransform="rotate(1.6 401.164 259.426)" xlink:href="#linear-gradient"/><linearGradient id="linear-gradient-31" x1="348.63" y1="288.78" x2="517.21" y2="288.78" gradientTransform="rotate(1.6 401.164 259.426)" xlink:href="#linear-gradient"/><linearGradient id="linear-gradient-32" x1="349.33" y1="288.78" x2="516.51" y2="288.78" gradientTransform="rotate(1.6 401.164 259.426)" xlink:href="#linear-gradient"/><linearGradient id="linear-gradient-33" x1="350.04" y1="288.78" x2="515.81" y2="288.78" gradientTransform="rotate(1.6 401.164 259.426)" xlink:href="#linear-gradient"/><linearGradient id="linear-gradient-34" x1="350.74" y1="288.78" x2="515.1" y2="288.78" gradientTransform="rotate(1.6 401.164 259.426)" xlink:href="#linear-gradient"/><linearGradient id="linear-gradient-35" x1="351.44" y1="288.78" x2="514.4" y2="288.78" gradientTransform="rotate(1.6 401.164 259.426)" xlink:href="#linear-gradient"/><linearGradient id="linear-gradient-36" x1="352.15" y1="288.78" x2="513.69" y2="288.78" gradientTransform="rotate(1.6 401.164 259.426)" xlink:href="#linear-gradient"/><linearGradient id="linear-gradient-37" x1="352.85" y1="288.78" x2="512.99" y2="288.78" gradientTransform="rotate(1.6 401.164 259.426)" xlink:href="#linear-gradient"/><linearGradient id="linear-gradient-38" x1="353.56" y1="288.78" x2="512.29" y2="288.78" gradientTransform="rotate(1.6 401.164 259.426)" xlink:href="#linear-gradient"/><linearGradient id="linear-gradient-39" x1="354.26" y1="288.78" x2="511.58" y2="288.78" gradientTransform="rotate(1.6 401.164 259.426)" xlink:href="#linear-gradient"/><linearGradient id="linear-gradient-40" x1="354.96" y1="288.78" x2="510.88" y2="288.78" gradientTransform="rotate(1.6 401.164 259.426)" xlink:href="#linear-gradient"/><linearGradient id="linear-gradient-41" x1="355.67" y1="288.78" x2="510.17" y2="288.78" gradientTransform="rotate(1.6 401.164 259.426)" xlink:href="#linear-gradient"/><linearGradient id="linear-gradient-42" x1="356.37" y1="288.78" x2="509.47" y2="288.78" gradientTransform="rotate(1.6 401.164 259.426)" xlink:href="#linear-gradient"/><linearGradient id="linear-gradient-43" x1="357.07" y1="288.78" x2="508.77" y2="288.78" gradientTransform="rotate(1.6 401.164 259.426)" xlink:href="#linear-gradient"/><linearGradient id="linear-gradient-44" x1="348.5" y1="284.29" x2="518.21" y2="284.29" xlink:href="#linear-gradient"/><linearGradient id="linear-gradient-45" x1="348.72" y1="275.36" x2="518.25" y2="275.36" xlink:href="#linear-gradient"/><linearGradient id="linear-gradient-46" x1="367.86" y1="174.39" x2="414.88" y2="174.39" gradientTransform="rotate(-.7 400.015 174.335)" xlink:href="#linear-gradient"/><linearGradient id="linear-gradient-47" x1="416.83" y1="173.65" x2="368.89" y2="175.39" gradientTransform="rotate(-2.5 399.098 201.283)" xlink:href="#linear-gradient"/><linearGradient id="linear-gradient-48" x1="409.78" y1="226.38" x2="524.87" y2="226.38" gradientTransform="rotate(-.7 400.015 174.335)" xlink:href="#linear-gradient"/><linearGradient id="linear-gradient-49" x1="507.84" y1="226.96" x2="365" y2="236.65" gradientTransform="rotate(-.7 400.015 174.335)" xlink:href="#linear-gradient"/><radialGradient id="Degradado_sin_nombre_4" cx="339.52" cy="260" r="285.12" gradientTransform="matrix(.9 0 0 .89 -3.4 -30.8)" gradientUnits="userSpaceOnUse"><stop offset="0" stop-color="#14244c"/><stop offset="1" stop-color="#000026"/></radialGradient><radialGradient id="_ÂÁ_Ï_ÌÌ_È_ËÂÌÚ_19" cx="329" cy="242.59" r="248.02" gradientUnits="userSpaceOnUse"><stop offset="0" stop-color="#ff2c9c"/><stop offset=".03" stop-color="#f62f9f"/><stop offset=".2" stop-color="#c63eb0"/><stop offset=".37" stop-color="#9e4bbe"/><stop offset=".54" stop-color="#7f54c9"/><stop offset=".7" stop-color="#695bd1"/><stop offset=".86" stop-color="#5c60d5"/><stop offset="1" stop-color="#5761d7"/></radialGradient><style>.cls-52,.cls-53,.cls-54,.cls-55,.cls-56,.cls-57,.cls-58,.cls-59,.cls-60,.cls-61,.cls-62,.cls-63,.cls-64,.cls-65,.cls-66,.cls-67,.cls-68,.cls-69,.cls-70,.cls-71,.cls-72,.cls-73,.cls-74,.cls-75,.cls-76,.cls-77,.cls-78,.cls-79,.cls-80,.cls-81,.cls-82,.cls-83,.cls-84,.cls-85,.cls-86,.cls-87,.cls-88,.cls-89,.cls-90,.cls-91,.cls-92,.cls-93,.cls-94{stroke-miterlimit:10}.cls-52{opacity:0}.cls-53{opacity:.02}.cls-53,.cls-54,.cls-55,.cls-56,.cls-57,.cls-58,.cls-59,.cls-60,.cls-61,.cls-62,.cls-63,.cls-64,.cls-65,.cls-66,.cls-67,.cls-68,.cls-69,.cls-70,.cls-71,.cls-72,.cls-73,.cls-74,.cls-75,.cls-76,.cls-77,.cls-78,.cls-79,.cls-80,.cls-81,.cls-82,.cls-83,.cls-84,.cls-85,.cls-86,.cls-87,.cls-88,.cls-89,.cls-90,.cls-91,.cls-92,.cls-93{mix-blend-mode:multiply}.cls-54{opacity:.05}.cls-55{opacity:.07}.cls-56{opacity:.1}.cls-57{opacity:.12}.cls-58{opacity:.15}.cls-59{opacity:.17}.cls-60{opacity:.2}.cls-61{opacity:.22}.cls-62{opacity:.24}.cls-63{opacity:.27}.cls-64{opacity:.29}.cls-65{opacity:.32}.cls-66{opacity:.34}.cls-67{opacity:.37}.cls-68{opacity:.39}.cls-69{opacity:.41}.cls-70{opacity:.44}.cls-71{opacity:.46}.cls-72{opacity:.49}.cls-73{opacity:.51}.cls-74{opacity:.54}.cls-75{opacity:.56}.cls-76{opacity:.59}.cls-77{opacity:.61}.cls-78{opacity:.63}.cls-79{opacity:.66}.cls-80{opacity:.68}.cls-81{opacity:.71}.cls-82{opacity:.73}.cls-83{opacity:.76}.cls-84{opacity:.78}.cls-85{opacity:.8}.cls-86{opacity:.83}.cls-87{opacity:.85}.cls-88{opacity:.88}.cls-89{opacity:.9}.cls-90{opacity:.93}.cls-91{opacity:.95}.cls-92{opacity:.98}.cls-50{opacity:.8}.cls-51{opacity:.9}.cls-52,.cls-53,.cls-54,.cls-55,.cls-56,.cls-57,.cls-58,.cls-59,.cls-60,.cls-61,.cls-62,.cls-63,.cls-64,.cls-65,.cls-66,.cls-67,.cls-68,.cls-69,.cls-70,.cls-71,.cls-72,.cls-73,.cls-74,.cls-75,.cls-76,.cls-77,.cls-78,.cls-79,.cls-80,.cls-81,.cls-82,.cls-83,.cls-84,.cls-85,.cls-86,.cls-87,.cls-88,.cls-89,.cls-90,.cls-91,.cls-92,.cls-93,.cls-94{fill:#02042a;stroke:#42e8e0}.cls-95{fill:#0a1339}.cls-104{fill:#d4ecff}</style></defs><g style="isolation:isolate"><g id="_ÎÓÈ_1" data-name="—ÎÓÈ_1"><path fill="url(#Degradado_sin_nombre_4)" d="M601 .3V400H1V.3"/><path stroke-miterlimit="10" fill="none" stroke="#000" d="M601 .3V400H1V.3"/><path d="M544.7 313.2h57.5v-.7h-57.3l-10.8-6.2h26.4l13.2-7.6h28v-.7H575l14.9-8.6a5 5 0 004.1-.2 1.4 1.4 0 000-2.6 5 5 0 00-4.5 0c-1.1.6-1.2 1.7-.3 2.4l-28.9 16.7h-27.5l-26.1-15 9.6-5.6-6.2-3.6h18l23.5 13.6c-.9.7-.8 1.7.3 2.4a5 5 0 004.5 0 1.4 1.4 0 000-2.6 5 5 0 00-4.1-.2l-24.1-13.9H509l-13.2-7.8 8.1-4.7h14.4l12.6-7.3h9.4l21.3 12.3c-1 .7-.9 1.7.3 2.4a5 5 0 004.5 0 1.4 1.4 0 000-2.6 5 5 0 00-4-.2l-21.8-12.6h-9.8l-12.6 7.3h-13l25.9-15h14l29.2 16.8h27.1v-.7h-27L545.2 252h-14.4l-35.7 20.6-9.4-5.4 40.3-23.3h28.4l23.5 13.5h23.3v-.7h-23.1l-22.2-12.8h44.8v-.7h-74.9L485 266.8l-10.6-6.1 56.2-32.5h70.8v-.7h-44l44.3-25.6v-.8l-45.8 26.4h-24.8l53.3-30.8v-6.8l16.4-9.5v-.9l-5.5 3.2v-18.5l5.7-3.3c0-.3 0-.6.1-.9l-6.5 3.8v19.4l-10.9 6.3v6.8l-53.7 31 .2.3-56.5 32.6-10.3-5.9 58-33.5v-55.1l80.1-46.2v-.8l-63.1 36.4v-49.8L601.2 69v-.8l-63.5 36.7v50.7l-16.9 9.8v55.1l-58 33.5-9-5.2 44.7-25.8v-30.3h-.2l-50.9-29.4v-10.4l28.8-16.6a5 5 0 004.1-.2 1.4 1.4 0 000-2.6 5 5 0 00-4.5 0c-1.1.6-1.2 1.6-.3 2.4l-28.8 16.6v11.1h.2l50.9 29.4v29.4L463.9 242v-12.6l15.5-8.9a5 5 0 004.1-.2 1.4 1.4 0 000-2.6 5 5 0 00-4.5 0c-1.1.6-1.2 1.6-.3 2.4l-15.5 8.9v13.4l-10.2 5.9-12.1-7v-21.9l22.8-13.2v-15.1h-.2l-48-27.7c.9-.7.8-1.7-.3-2.4a5 5 0 00-4.5 0 1.4 1.4 0 000 2.6 5 5 0 004.1.2l48.2 27.7v14.3l-22.1 12.8v-15.1h-.2l-29.4-17c.9-.7.8-1.7-.3-2.4a5 5 0 00-4.5 0 1.4 1.4 0 000 2.6 5 5 0 004.1.2l29.5 17.1v37l-8.5-4.9-14 8.1-12.6-7.4V219h-.2l-33.5-19.3v-16.9a4.4 4.4 0 001.9-.5 1.4 1.4 0 000-2.6 5 5 0 00-4.5 0 1.4 1.4 0 000 2.6 4.4 4.4 0 001.9.5V200h.2l33.5 19.3v17l-54.5-31.5v-33.3l29.6-17.1h27.2l46.6-26.9a5 5 0 004.1-.2 1.4 1.4 0 000-2.6 5 5 0 00-4.5 0c-1.1.6-1.2 1.7-.3 2.4l-46.1 26.6h-25.8l85.5-49.4a5 5 0 004.1-.2 1.4 1.4 0 000-2.6 5 5 0 00-4.5 0c-1.1.6-1.2 1.7-.3 2.4L349 171.1v34.2h.2l67.8 39.2-13.6 7.9-115.7-66.8v-39.9h-.2L248.2 123c.9-.7.8-1.7-.3-2.4a5 5 0 00-4.5 0 1.4 1.4 0 000 2.6 5 5 0 004.1.2l39.5 22.8V186h.2l115.5 66.7-13 7.5-114.4-66h-68.2l-42.6-24.6v-37.8l1.2-.4a1.4 1.4 0 000-2.6 5 5 0 00-4.5 0 1.4 1.4 0 000 2.6 4.7 4.7 0 002.5.5V170h.2l43 24.8h68.2l96.5 55.7h-19.4l-32.9-19h-25.5L258.6 252a5 5 0 00-4.1.2 1.4 1.4 0 000 2.6 5 5 0 004.5 0c1.1-.6 1.2-1.7.3-2.4l34.8-20.1h25l32.9 19h20.8l16.1 9.3-34.6 20-9.9-5.7v-14.8l-25-14.4c.9-.7.8-1.7-.3-2.4a5 5 0 00-4.5 0 1.4 1.4 0 000 2.6 5 5 0 004.1.2l25 14.4v14.1L317 259.2h-12.7l-15.1 8.7a5 5 0 00-4.1.2 1.4 1.4 0 000 2.6 5 5 0 004.5 0c1.1-.6 1.2-1.7.3-2.4l14.6-8.4h12.3l36.7 21.2-6.7 3.9 21.3 12.3-10 5.8h-15l-10.8-6.2c.9-.7.7-1.7-.4-2.3a5 5 0 00-4.5 0 1.4 1.4 0 000 2.6 5 5 0 004.1.2l11.3 6.5h14l-25.4 14.7-59.8-34.5h-43l-24.2 14a5 5 0 00-4.1.2 1.4 1.4 0 000 2.6 5 5 0 004.5 0c1.1-.6 1.2-1.7.3-2.4l23.8-13.7h42.7l46.1 26.6h-19.8L278.6 300c.9-.7.8-1.7-.3-2.4a5 5 0 00-4.5 0 1.4 1.4 0 000 2.6 5 5 0 004.1.2l19.8 11.4h21.2l11.9 6.9-30.4 17.5h-97L128 292.8c.9-.7.8-1.7-.3-2.4a5 5 0 00-4.5 0 1.4 1.4 0 000 2.6 5 5 0 004.1.2l75.9 43.8h96l-12 7h-71.9l-35.4 20.5a5 5 0 00-4.1.2 1.4 1.4 0 000 2.6 5 5 0 004.5 0c1.1-.6 1.2-1.6.3-2.4l35-20.2h71.9l81.4-47 9 5.2-85.6 49.4h-62.7L154 396H49.3L29 384.3v.8l20.1 11.6h105.2l47.5-27.4v16.2L176.6 400h1.2l24.7-14.3v-16.8h-.2l27.6-15.9h62.7l86-49.7 10.3 5.9-158.3 91.4h1.3l157.7-91 12.7 7.3-86.1 49.7v8.9l-15.3 8.8v16h.7v-15.5l14.6-8.4v24.4h.7v-33.7l86.1-49.8 11.6 6.7-60.9 35.2a5 5 0 00-4.1.2 1.4 1.4 0 000 2.6 5 5 0 004.5 0c1.1-.6 1.2-1.6.3-2.4l60.9-35.2 11.2 6.4-72.9 42.1h-19.9a1.8 1.8 0 00-.9-.9 5 5 0 00-4.5 0 1.4 1.4 0 000 2.6 5 5 0 004.5 0 1.8 1.8 0 00.9-.9h20.1l73.3-42.3 4.5 2.6 3.5-2 17.5 10.1v14l-14.4 8.3h-22.8l-24.8 14.3a5 5 0 00-4.1.2 1.4 1.4 0 000 2.6 5 5 0 004.5 0c1.1-.6 1.2-1.7.3-2.4l24.4-14.1H437l-42.4 24.5a5 5 0 00-4.2.1 1.4 1.4 0 000 2.6 5 5 0 004.5 0c1.1-.6 1.2-1.6.4-2.3l52.9-30.6v6.8l-31.5 18.2v12.8l-5.9 3.4h1.3l5.3-3v-12.8l31.5-18.2v-7.6l4.4-2.5v-14.9l-17.5-10.1 11.5-6.6 35.9 20.8v23.6l-24.4 14.1a5 5 0 00-4.2.1 1.4 1.4 0 000 2.6 5 5 0 004.5 0c1.1-.6 1.2-1.6.4-2.3l23.7-13.7v19l-18.7 10.8v.8h.7v-.3l18-10.4v10.5h.7v-55.2L448 324.4l12.9-7.4 47 27.1v56.3h.7v-56.7l-47-27.1 9.6-5.5 63.4 36.6v53.5h.7v-54l-63.4-36.6 15.5-8.9 105.5 60.9V390l8.5 4.9c0-.3-.1-.6-.1-.9l-7.7-4.4v-27.4l-59.3-34.3h46.9l20.8 12v-.8l-20.6-11.9H533l-44.9-25.9 18-10.4zm-113 19.8l-83.3-48.1 83.3-48.1 83.3 48.1z" opacity=".55" fill="url(#linear-gradient)" stroke="url(#_ÂÁ_Ï_ÌÌ_È_ËÂÌÚ_19)" stroke-miterlimit="10"/><path d="M496.8 307.5h15.3l26 15h20.1l27.7-16a4 4 0 003.2-.1 1.1 1.1 0 000-2 3.9 3.9 0 00-3.5 0c-.9.5-1 1.3-.3 1.9l-27.4 15.8h-19.7l-26-15h-16.4l-12.7-7.3 27.3-15.8 7.8 4.5v11.8l19.7 11.4c-.7.6-.6 1.4.3 1.9a3.9 3.9 0 003.5 0 1.1 1.1 0 000-2 4 4 0 00-3.2-.1l-19.7-11.4v-11.5l21 12.1h10l11.9-6.9a4 4 0 003.2-.1 1.1 1.1 0 000-2 3.9 3.9 0 00-3.5 0c-.9.5-1 1.3-.3 1.9l-11.5 6.7H540l-29-16.8 5.3-3-.4-.2-16.4-9.4 7.9-4.5h11.9l8.5 4.9c-.7.6-.6 1.3.3 1.8a3.9 3.9 0 003.5 0 1.1 1.1 0 000-2 4 4 0 00-3.3-.1l-8.9-5.1h-11.1l20-11.6 47.2 27.2h24.9v-.6h-24.7l-36.4-21h15.6l15.2 8.8c-.7.6-.6 1.4.3 1.9a3.9 3.9 0 003.5 0 1.1 1.1 0 000-2 4 4 0 00-3.2-.1l-15.6-9h-16.8l-9.4-5.4 24-14.1h48v-.6h-47.1l9.5-5.5h38.4v-.6h-38.6l-64.2 37.1-7.1-4.1 67.5-39h42v-.6h-42.2L491.2 266l-8.1-4.7L601.6 193v-.6l-119 68.6-10-5.8 67.9-39.2v-7l12-6.9V186l23.3-13.5a4 4 0 003.2-.1 1.1 1.1 0 000-2 3.9 3.9 0 00-3.5 0c-.9.5-1 1.3-.3 1.9l-23.3 13.5v16.1l-11.5 6.6v-25.9h-.1l-6.6-3.8 39.8-23v-25.9l27.9-16.1c0-.8 0-1.6.1-2.4-.9.5-1 1.3-.3 1.9l-28.3 16.3v25.8l-39.8 23-64.7-37.4v-28.9a3.5 3.5 0 001.5-.4 1.1 1.1 0 000-2 3.9 3.9 0 00-3.5 0 1.1 1.1 0 000 2 3.5 3.5 0 001.5.4v29.2h.1l38.9 22.5h-28.3l-22.9-13.2c.7-.6.6-1.4-.3-1.9a3.9 3.9 0 00-3.5 0 1.1 1.1 0 000 2 4 4 0 003.2.1l23.3 13.5h29.5l32 18.5v32.8L472 254.9l-9.1-5.3 48-27.7a4 4 0 003.2-.1 1.1 1.1 0 000-2 3.9 3.9 0 00-3.5 0c-.9.5-1 1.3-.3 1.9l-48 27.7-8.8-5.1 57.5-33.2h15.6a1.4 1.4 0 00.7.7 3.9 3.9 0 003.5 0 1.1 1.1 0 000-2 3.9 3.9 0 00-3.5 0 1.4 1.4 0 00-.7.7h-15.8L453 244l-3.5-2h-.1l-2.6 1.5-13.8-8v-11l11.4-6.6h17.8l19.7-11.3a4 4 0 003.2-.1 1.1 1.1 0 000-2 3.9 3.9 0 00-3.5 0c-.9.5-1 1.3-.3 1.9l-19.3 11h-16.7l33.4-19.3a3.9 3.9 0 003.3-.1 1.1 1.1 0 000-2 3.9 3.9 0 00-3.5 0c-.9.5-1 1.3-.3 1.8l-41.7 24.1v-5.3l24.8-14.3v-10.2l20.2-11.7a4 4 0 003.2-.1 1.1 1.1 0 000-2 3.9 3.9 0 00-3.5 0c-.9.5-1 1.3-.3 1.9l-20.2 11.7V202l-24.8 14.3v6l-3.5 2V236l13.8 7.9-9 5.2-28.3-16.4v-18.6L428 203a3.9 3.9 0 003.3-.1 1.1 1.1 0 000-2 3.9 3.9 0 00-3.5 0c-.9.5-1 1.3-.3 1.8l-18.7 10.8v-15l14.8-8.5v-28.4a3.5 3.5 0 001.5-.4 1.1 1.1 0 000-2 3.9 3.9 0 00-3.5 0 1.1 1.1 0 000 2 3.5 3.5 0 001.5.4v27.9l-14.2 8.2v-49.8h-.6V233l28.3 16.4-10.2 5.9-37-21.4v-51l-17.8-10.3v-19.1l-15.7-9.1c.7-.6.6-1.4-.3-1.9a3.9 3.9 0 00-3.5 0 1.1 1.1 0 000 2 4 4 0 003.2.1l15.7 9.1V173l17.8 10.3v50.9l37 21.4-7.5 4.3-50-28.9v-43.4h-.1L324 162c.7-.6.6-1.4-.3-1.9a3.9 3.9 0 00-3.5 0 1.1 1.1 0 000 2 4 4 0 003.2.1l44.4 25.6v43.4h.1l49.8 28.8-12.2 7-83.1-48v-21.4h-.1l-69.6-40.2c.7-.6.6-1.4-.3-1.9a3.9 3.9 0 00-3.5 0 1.1 1.1 0 000 2 4 4 0 003.2.1l69.8 40.4v21.6h.1l46.6 26.9h-37l-42.8-24.7c.7-.6.6-1.4-.3-1.9a3.9 3.9 0 00-3.5 0 1.1 1.1 0 000 2 4 4 0 003.2.1l43.2 25h38.1l35.5 20.6-14.2 8.2-30.4-17.6h-48.9l-55.6-32.1h-30.8l-12.6-7.3c.7-.6.6-1.4-.3-1.9a3.9 3.9 0 00-3.5 0 1.1 1.1 0 000 2 4 4 0 003.2.1l13 7.5h30.8l42 24.2h-36.2l-17.5-9.9c.7-.6.6-1.4-.3-1.9a3.9 3.9 0 00-3.5 0 1.1 1.1 0 000 2 4 4 0 003.2.1l17.9 10.3h37.4l12.6 7.3h48.9l8.5 4.9h-20.8l-10.4 6h-43.4l-12.2-7.1h-24.6a1.4 1.4 0 00-.7-.7 3.9 3.9 0 00-3.5 0 1.1 1.1 0 000 2 3.9 3.9 0 003.5 0 1.4 1.4 0 00.7-.7h24.4l12.2 7.1h42.6l-11.7 6.8a4 4 0 00-3.2.1 1.1 1.1 0 000 2 3.9 3.9 0 003.5 0c.9-.5 1-1.3.3-1.9l22.8-13.2h21.6l20.5 11.9-7.6 4.4.4.2 4.5 2.6h-14.3l-18.6-10.7c.7-.6.6-1.4-.3-1.9a3.9 3.9 0 00-3.5 0 1.1 1.1 0 000 2 4 4 0 003.2.1l19 11h15.3l10.4 6-6.4 3.7h-11.3l-9.9 5.7h-7.4l-16.8-9.3c.8-.6.7-1.4-.2-1.9a3.9 3.9 0 00-3.5 0 1.1 1.1 0 000 2 4 4 0 003.2.2l17.2 9.9h7.8l9.9-5.7h10.2l-20.4 11.8h-11l-23-13.3h-69.4l-43-24.8c.7-.6.7-1.4-.2-1.9a3.9 3.9 0 00-3.5 0 1.1 1.1 0 000 2 4 4 0 003.2.2l43.4 25.1H337l23 13.3h11.4l28.1-16.2 7.4 4.3-31.8 18.3h-22.4l-18.5-10.7h-47.5a1.4 1.4 0 00-.7-.7 3.9 3.9 0 00-3.5 0 1.1 1.1 0 000 2 3.9 3.9 0 003.5 0 1.4 1.4 0 00.7-.7H334l17.5 10.1h-66.9l-63.7 36.8a4 4 0 00-3.2.1 1.1 1.1 0 000 2 3.9 3.9 0 003.5 0c.9-.5 1-1.3.3-1.9l63.4-36.6h90.5l32.1-18.5 8.4 4.8-44.3 25.6h-78.2l-68.3 39.4h-79.6L99 337.9c.7-.6.6-1.4-.3-1.9a3.9 3.9 0 00-3.5 0 1.1 1.1 0 000 2 4 4 0 003.2.1l46.8 27h80l68.3-39.4h56.8L267 373.9v12.7l-24.5 14.1h1l24-13.9v-12.5l84-48.5H371l-42 24.3v5.3L308.9 367a4 4 0 00-3.2.1 1.1 1.1 0 000 2 3.9 3.9 0 003.5 0c.9-.5 1-1.3.3-1.9l10.9-6.3v14.6l-43.1 24.9h1.1l42.6-24.5v-15.3l8.6-5v-5.3l42.4-24.4v-.2l44.5-25.7 8.1 4.7-45.9 26.3v43.4L333 400.8h1.2l31.2-18v17.7h.6v-18l13.3-7.7v-43.5l45.7-26.4 7.1 4.1-35.3 20.4v23.8h.1l40.1 23.1v8.1l-22.7 13.1a4 4 0 00-3.2.1 1.1 1.1 0 000 2 3.9 3.9 0 003.5 0c.9-.5 1-1.3.3-1.9l22.7-13.1v-8.7h-.1l-40.1-23.1v-23.1l26.6-15.4v9.9l-12.2 7.1a4 4 0 00-3.2.1 1.1 1.1 0 000 2 3.9 3.9 0 003.5 0c.9-.5 1-1.3.3-1.9l12.2-7.1V314l8.1-4.7 9.5 5.5v17.3l-18 10.4v11.9h.1l37.8 21.8c-.7.6-.6 1.4.3 1.9a3.9 3.9 0 003.5 0 1.1 1.1 0 000-2 4 4 0 00-3.2-.1l-38-21.9v-11.3l17.4-10.1v11.9l23.3 13.4c-.7.6-.6 1.4.3 1.9a3.9 3.9 0 003.5 0 1.1 1.1 0 000-2 4 4 0 00-3.2-.1l-23.3-13.4v-29.2l6.7 3.9h.1l10.9-6.3 10 5.8v14l26.6 15.2V361a3.5 3.5 0 00-1.5.4 1.1 1.1 0 000 2 3.9 3.9 0 003.5 0 1.1 1.1 0 000-2 3.5 3.5 0 00-1.5-.4v-13.5L471 332.1v-13.3l43 24.8v26.3l-23.3 13.5h-21.4l-30.1 17.4h1.2l29.1-16.8h20.3l-28.3 16.3h.9l52.2-30.2v-26.8h-.1l-53.4-30.8 10.7-6.2 91.1 52.6v31.4l18 10.4h1l-18.4-10.6v-31.6h-.1l-91-52.5 10.2-5.9 90.1 52h29.1v-.6h-29zm-47.3 10.9l-65.7-37.9 65.7-37.9 65.7 37.9z" fill="#42e8e0" opacity=".1"/><g id="_1" data-name="1"><g id="_Group_" data-name="&lt;Group&gt;" stroke-miterlimit="10"><g id="_Group_2" data-name="&lt;Group&gt;" fill="#e5e5e5"><path d="M414.4 340.6L335.8 296c-10.8-6.1-9.2-16.2 3.6-22.6l68-34.2c12.7-6.4 31.8-6.7 42.5-.6l78.6 44.6c10.8 6.1 9.2 16.2-3.6 22.6l-68 34.2c-12.7 6.4-31.8 6.7-42.5.6z" style="mix-blend-mode:multiply" stroke="url(#linear-gradient-3)" opacity=".02"/><path d="M414.5 340.2L336.4 296c-10.7-6.1-9.1-16.1 3.5-22.5l67.5-34c12.6-6.4 31.5-6.6 42.2-.6l78.1 44.3c10.7 6.1 9.1 16.1-3.5 22.5l-67.5 34c-12.6 6.3-31.5 6.6-42.2.5z" style="mix-blend-mode:multiply" stroke="url(#linear-gradient-4)" opacity=".05"/><path d="M414.6 339.9l-77.5-44c-10.6-6-9-16 3.5-22.3l67-33.8c12.6-6.3 31.3-6.6 41.9-.6l77.5 44c10.6 6 9 16-3.5 22.3l-67 33.8c-12.5 6.3-31.3 6.6-41.9.6z" style="mix-blend-mode:multiply" stroke="url(#linear-gradient-5)" opacity=".07"/><path d="M414.7 339.5l-77-43.7c-10.5-6-9-15.9 3.5-22.2l66.6-33.5c12.5-6.3 31.1-6.5 41.6-.5l77 43.7c10.5 6 9 15.9-3.5 22.2L456.4 339c-12.5 6.3-31.1 6.5-41.7.5z" style="mix-blend-mode:multiply" stroke="url(#linear-gradient-6)" opacity=".1"/><path d="M414.9 339.2l-76.5-43.4c-10.5-5.9-8.9-15.8 3.5-22l66.1-33.3c12.4-6.2 30.9-6.5 41.4-.5l76.5 43.4c10.5 5.9 8.9 15.8-3.5 22l-66.1 33.3c-12.5 6.2-31 6.4-41.4.5z" style="mix-blend-mode:multiply" stroke="url(#linear-gradient-7)" opacity=".12"/><path d="M415 338.8l-75.9-43.1c-10.4-5.9-8.8-15.7 3.4-21.9l65.7-33.1c12.3-6.2 30.7-6.4 41.1-.5l75.9 43.1c10.4 5.9 8.8 15.7-3.4 21.9L456 338.3c-12.2 6.2-30.6 6.4-41 .5z" style="mix-blend-mode:multiply" stroke="url(#linear-gradient-8)" opacity=".15"/><path d="M415.1 338.5l-75.4-42.8c-10.3-5.9-8.8-15.6 3.4-21.7l65.2-32.8c12.2-6.1 30.5-6.4 40.8-.5l75.4 42.8c10.3 5.9 8.8 15.6-3.4 21.7L455.9 338c-12.2 6.1-30.5 6.3-40.8.5z" style="mix-blend-mode:multiply" stroke="url(#linear-gradient-9)" opacity=".17"/><path d="M415.2 338.1l-74.9-42.5c-10.2-5.8-8.7-15.5 3.4-21.6l64.7-32.6c12.1-6.1 30.2-6.3 40.5-.5l74.9 42.5c10.2 5.8 8.7 15.5-3.4 21.6l-64.7 32.6c-12.1 6.1-30.2 6.4-40.5.5z" style="mix-blend-mode:multiply" stroke="url(#linear-gradient-10)" opacity=".2"/><path d="M415.3 337.8L341 295.6c-10.2-5.8-8.7-15.4 3.4-21.4l64.3-32.4c12-6.1 30-6.3 40.2-.5l74.3 42.2c10.2 5.8 8.7 15.4-3.4 21.4l-64.3 32.4c-12 6-30 6.3-40.2.5z" style="mix-blend-mode:multiply" stroke="url(#linear-gradient-11)" opacity=".22"/><path d="M415.5 337.5l-73.8-41.8c-10.1-5.7-8.6-15.2 3.3-21.3l63.8-32.1c11.9-6 29.8-6.3 39.9-.5l73.8 41.8c10.1 5.7 8.6 15.2-3.3 21.3L455.4 337c-12 5.9-29.8 6.2-39.9.5z" style="mix-blend-mode:multiply" stroke="url(#linear-gradient-12)" opacity=".24"/><path d="M415.6 337.1l-73.3-41.5c-10-5.7-8.5-15.1 3.3-21.1l63.4-32c11.9-6 29.6-6.2 39.6-.5l73.3 41.5c10 5.7 8.5 15.1-3.3 21.1l-63.3 31.9c-12 6.1-29.7 6.3-39.7.6z" style="mix-blend-mode:multiply" stroke="url(#linear-gradient-13)" opacity=".27"/><path d="M415.7 336.8L343 295.5c-9.9-5.6-8.5-15 3.3-21l62.9-31.7c11.8-5.9 29.4-6.2 39.3-.5l72.7 41.2c9.9 5.6 8.5 15-3.3 21L455 336.2c-11.7 6-29.3 6.2-39.3.6z" style="mix-blend-mode:multiply" stroke="url(#linear-gradient-14)" opacity=".29"/><path d="M415.8 336.4l-72.2-40.9c-9.9-5.6-8.4-14.9 3.3-20.8l62.4-31.4c11.7-5.9 29.2-6.1 39-.5l72.2 40.9c9.9 5.6 8.4 14.9-3.3 20.8l-62.4 31.4c-11.6 5.9-29.1 6.1-39 .5z" style="mix-blend-mode:multiply" stroke="url(#linear-gradient-15)" opacity=".32"/><path d="M415.9 336.1l-71.6-40.6c-9.8-5.6-8.3-14.8 3.3-20.6l62-31.2c11.6-5.8 28.9-6.1 38.8-.5l71.6 40.6c9.8 5.6 8.3 14.8-3.3 20.6l-62 31.2c-11.6 5.8-29 6-38.8.5z" style="mix-blend-mode:multiply" stroke="url(#linear-gradient-16)" opacity=".34"/><path d="M416.1 335.7L345 295.4c-9.7-5.5-8.3-14.7 3.2-20.5l61.5-31c11.5-5.8 28.7-6 38.5-.5l71.1 40.3c9.7 5.5 8.3 14.7-3.2 20.5l-61.5 31c-11.6 5.8-28.8 6-38.5.5z" style="mix-blend-mode:multiply" stroke="url(#linear-gradient-17)" opacity=".37"/><path d="M416.2 335.4l-70.6-40c-9.7-5.5-8.2-14.6 3.2-20.3l61-30.7c11.4-5.8 28.5-6 38.2-.5l70.6 40c9.7 5.5 8.2 14.6-3.2 20.3l-61 30.7c-11.5 5.7-28.6 5.9-38.2.5z" style="mix-blend-mode:multiply" stroke="url(#linear-gradient-18)" opacity=".39"/><path d="M416.3 335l-70-39.7c-9.6-5.4-8.2-14.5 3.2-20.2l60.5-30.5c11.3-5.7 28.3-5.9 37.9-.5l70 39.7c9.6 5.4 8.2 14.5-3.2 20.2l-60.6 30.5c-11.2 5.7-28.2 6-37.8.5z" style="mix-blend-mode:multiply" stroke="url(#linear-gradient-19)" opacity=".41"/><path d="M416.4 334.7l-69.5-39.4c-9.5-5.4-8.1-14.4 3.2-20l60.1-30.3c11.3-5.7 28.1-5.9 37.6-.5l69.5 39.4c9.5 5.4 8.1 14.4-3.2 20L454 334.2c-11.2 5.6-28.1 5.9-37.6.5z" style="mix-blend-mode:multiply" stroke="url(#linear-gradient-20)" opacity=".44"/><path d="M416.5 334.3l-69-39.1c-9.4-5.4-8-14.3 3.1-19.9l59.6-30c11.2-5.6 27.9-5.8 37.3-.5l69 39.1c9.4 5.4 8 14.3-3.1 19.9l-59.6 30c-11.1 5.7-27.8 5.9-37.3.5z" style="mix-blend-mode:multiply" stroke="url(#linear-gradient-21)" opacity=".46"/><path d="M416.7 334l-68.4-38.8c-9.4-5.3-8-14.1 3.1-19.7l59.2-29.8c11.1-5.6 27.7-5.8 37-.5L516 284c9.4 5.3 8 14.1-3.1 19.7l-59.2 29.8c-11.1 5.6-27.7 5.8-37 .5z" style="mix-blend-mode:multiply" stroke="url(#linear-gradient-22)" opacity=".49"/><path d="M416.8 333.6l-67.9-38.5c-9.3-5.3-7.9-14 3.1-19.6l58.7-29.5c11-5.5 27.4-5.8 36.7-.5l67.9 38.5c9.3 5.3 7.9 14-3.1 19.6l-58.7 29.6c-11 5.5-27.4 5.7-36.7.4z" style="mix-blend-mode:multiply" stroke="url(#linear-gradient-23)" opacity=".51"/><path d="M416.9 333.3l-67.4-38.2c-9.2-5.2-7.8-13.9 3.1-19.4l58.3-29.3c10.9-5.5 27.2-5.7 36.4-.5l67.4 38.2c9.2 5.2 7.8 13.9-3.1 19.4l-58.3 29.3c-10.9 5.5-27.2 5.7-36.4.5z" style="mix-blend-mode:multiply" stroke="url(#linear-gradient-24)" opacity=".54"/><path d="M417 332.9L350.2 295c-9.1-5.2-7.8-13.8 3-19.3l57.8-29c10.8-5.4 27-5.7 36.1-.5l66.9 37.9c9.1 5.2 7.8 13.8-3 19.3l-57.8 29.1c-10.8 5.4-27 5.6-36.2.4z" style="mix-blend-mode:multiply" stroke="url(#linear-gradient-25)" opacity=".56"/><path d="M417.2 332.6L350.9 295c-9.1-5.1-7.7-13.7 3-19.1l57.3-28.9c10.7-5.4 26.8-5.6 35.9-.5l66.3 37.6c9.1 5.1 7.7 13.7-3 19.1L453 332.1c-10.7 5.4-26.8 5.6-35.8.5z" style="mix-blend-mode:multiply" stroke="url(#linear-gradient-26)" opacity=".59"/><path d="M417.3 332.2l-65.8-37.3c-9-5.1-7.7-13.6 3-19l56.9-28.6c10.6-5.4 26.6-5.6 35.6-.5l65.8 37.3c9 5.1 7.7 13.6-3 19l-56.9 28.6c-10.7 5.4-26.6 5.6-35.6.5z" style="mix-blend-mode:multiply" stroke="url(#linear-gradient-27)" opacity=".61"/><path d="M417.4 331.9l-65.2-37c-8.9-5.1-7.6-13.5 3-18.8l56.4-28.4c10.6-5.3 26.4-5.5 35.3-.5l65.2 37c8.9 5.1 7.6 13.5-3 18.8l-56.4 28.4c-10.6 5.4-26.4 5.6-35.3.5z" style="mix-blend-mode:multiply" stroke="url(#linear-gradient-28)" opacity=".63"/><path d="M417.5 331.6l-64.7-36.7c-8.9-5-7.5-13.4 2.9-18.6l56-28.3c10.5-5.3 26.1-5.5 35-.5l64.7 36.7c8.9 5 7.5 13.4-2.9 18.6L452.6 331c-10.6 5.4-26.2 5.6-35.1.6z" style="mix-blend-mode:multiply" stroke="url(#linear-gradient-29)" opacity=".66"/><path d="M417.6 331.2l-64.2-36.4c-8.8-5-7.5-13.3 2.9-18.5l55.5-27.9c10.4-5.2 25.9-5.4 34.7-.5l64.2 36.4c8.8 5 7.5 13.3-2.9 18.5l-55.5 27.9c-10.4 5.3-25.9 5.5-34.7.5z" style="mix-blend-mode:multiply" stroke="url(#linear-gradient-30)" opacity=".68"/><path d="M417.8 330.9l-63.6-36.1c-8.7-4.9-7.4-13.1 2.9-18.3l55-27.7c10.3-5.2 25.7-5.4 34.4-.5l63.6 36.1c8.7 4.9 7.4 13.1-2.9 18.3l-55 27.7c-10.3 5.2-25.7 5.4-34.4.5z" style="mix-blend-mode:multiply" stroke="url(#linear-gradient-31)" opacity=".71"/><path d="M417.9 330.5l-63.1-35.8c-8.6-4.9-7.3-13 2.9-18.2l54.6-27.5c10.2-5.1 25.5-5.3 34.1-.5l63.1 35.8c8.6 4.9 7.3 13-2.9 18.2L452 330.1c-10.2 5.1-25.5 5.3-34.1.4z" style="mix-blend-mode:multiply" stroke="url(#linear-gradient-32)" opacity=".73"/><path d="M418 330.2l-62.6-35.5c-8.6-4.9-7.3-12.9 2.8-18l54.1-27.2c10.1-5.1 25.3-5.3 33.8-.4l62.6 35.5c8.6 4.9 7.3 12.9-2.8 18l-54.1 27.2c-10.1 5-25.2 5.2-33.8.4z" style="mix-blend-mode:multiply" stroke="url(#linear-gradient-33)" opacity=".76"/><path d="M418.1 329.8l-62-35.2c-8.5-4.8-7.2-12.8 2.8-17.9l53.6-27c10-5.1 25.1-5.3 33.5-.4l62 35.2c8.5 4.8 7.2 12.8-2.8 17.9l-53.6 27c-10 5-25 5.2-33.5.4z" style="mix-blend-mode:multiply" stroke="url(#linear-gradient-34)" opacity=".78"/><path d="M418.2 329.5l-61.5-34.9c-8.4-4.8-7.2-12.7 2.8-17.7l53.2-26.8c10-5 24.8-5.2 33.3-.4l61.5 34.9c8.4 4.8 7.2 12.7-2.8 17.7L451.5 329c-10 5-24.9 5.2-33.3.5z" style="mix-blend-mode:multiply" stroke="url(#linear-gradient-35)" opacity=".8"/><path d="M418.4 329.1l-61-34.6c-8.3-4.7-7.1-12.6 2.8-17.6l52.7-26.5c9.9-5 24.6-5.2 33-.4l61 34.6c8.3 4.7 7.1 12.6-2.8 17.6l-52.7 26.5c-9.9 5-24.7 5.2-33 .4z" style="mix-blend-mode:multiply" stroke="url(#linear-gradient-36)" opacity=".83"/><path d="M418.5 328.8l-60.4-34.3c-8.3-4.7-7-12.5 2.7-17.4l52.2-26.3c9.8-4.9 24.4-5.1 32.7-.4l60.4 34.3c8.3 4.7 7 12.5-2.7 17.4l-52.2 26.3c-9.8 4.9-24.5 5.1-32.7.4z" style="mix-blend-mode:multiply" stroke="url(#linear-gradient-37)" opacity=".85"/><path d="M418.6 328.4l-59.9-34c-8.2-4.6-7-12.4 2.7-17.3l51.8-26.1c9.7-4.9 24.2-5.1 32.4-.4l59.9 34c8.2 4.6 7 12.4-2.7 17.3L451 328c-9.7 4.9-24.2 5.1-32.4.4z" style="mix-blend-mode:multiply" stroke="url(#linear-gradient-38)" opacity=".88"/><path d="M418.7 328.1l-59.4-33.7c-8.1-4.6-6.9-12.3 2.7-17.1l51.3-25.9c9.6-4.8 24-5 32.1-.4l59.4 33.7c8.1 4.6 6.9 12.3-2.7 17.1l-51.3 25.9c-9.6 4.8-24 5-32.1.4z" style="mix-blend-mode:multiply" stroke="url(#linear-gradient-39)" opacity=".9"/><path d="M418.8 327.7L360 294.4c-8-4.6-6.9-12.2 2.7-16.9l50.9-25.6c9.5-4.8 23.8-5 31.8-.4l58.8 33.4c8 4.6 6.9 12.2-2.7 16.9l-50.9 25.6c-9.5 4.7-23.7 4.9-31.8.3z" style="mix-blend-mode:multiply" stroke="url(#linear-gradient-40)" opacity=".93"/><path d="M419 327.4l-58.3-33.1c-8-4.5-6.8-12 2.6-16.8l50.4-25.4c9.4-4.8 23.5-4.9 31.5-.4l58.3 33.1c8 4.5 6.8 12-2.6 16.8L450.5 327c-9.5 4.7-23.6 4.9-31.5.4z" style="mix-blend-mode:multiply" stroke="url(#linear-gradient-41)" opacity=".95"/><path d="M419.1 327l-57.7-32.8c-7.9-4.5-6.7-11.9 2.6-16.6l49.9-25.2c9.3-4.7 23.3-4.9 31.2-.4l57.7 32.8c7.9 4.5 6.7 11.9-2.6 16.6l-49.9 25.2c-9.3 4.7-23.3 4.9-31.2.4z" style="mix-blend-mode:multiply" stroke="url(#linear-gradient-42)" opacity=".98"/><path id="_Path_2" data-name="&lt;Path&gt;" d="M419.2 326.7L362 294.2c-7.8-4.4-6.7-11.8 2.6-16.5l49.5-24.9c9.3-4.7 23.1-4.8 30.9-.4l57.2 32.5c7.8 4.4 6.7 11.8-2.6 16.5l-49.5 24.9c-9.2 4.7-23.1 4.8-30.9.4z" style="mix-blend-mode:multiply" stroke="url(#linear-gradient-43)"/></g><g id="_Group_3" data-name="&lt;Group&gt;" fill="#b0dbf7"><path id="_Path_3" data-name="&lt;Path&gt;" d="M517.5 287.1l.2-10.7-11.3-.3-58.7-33.3c-8.8-5-24.3-4.8-34.6.5l-55.4 27.9-1.3.7-7.2-.2-.2 9.9h0c0 3 1.9 5.8 5.8 8l64 36.3c8.8 5 24.3 4.8 34.6-.5l55.4-27.9c5.8-2.9 8.7-6.7 8.7-10.4z" stroke="url(#linear-gradient-44)"/><path id="_Path_4" data-name="&lt;Path&gt;" d="M419 316.9l-64-36.3c-8.8-5-7.5-13.2 2.9-18.4l55.4-27.9c10.4-5.2 25.9-5.4 34.6-.5l64 36.3c8.8 5 7.5 13.2-2.9 18.4l-55.4 27.9c-10.3 5.3-25.8 5.5-34.6.5z" stroke="url(#linear-gradient-45)"/></g></g></g><g id="_8" data-name="8" class="cls-50"><g id="_Group_4" data-name="&lt;Group&gt;" class="cls-51"><path id="_Path_5" data-name="&lt;Path&gt;" class="cls-52" d="M557.9 284.8L537 273.6c-2.9-1.5-2.5-4.2.8-5.9l17.7-9.4c3.3-1.8 8.3-1.9 11.2-.4l20.9 11.1c2.9 1.5 2.5 4.2-.8 5.9l-17.7 9.4c-3.3 1.8-8.3 2-11.2.5z"/><path class="cls-53" d="M558 284.6l-20.6-11c-2.8-1.5-2.5-4.1.8-5.9l17.4-9.2c3.3-1.7 8.2-1.9 11-.4l20.6 11c2.8 1.5 2.5 4.1-.8 5.9l-17.4 9.2c-3.2 1.7-8.2 1.9-11 .4z"/><path class="cls-54" d="M558.1 284.4l-20.3-10.9c-2.8-1.5-2.4-4.1.8-5.8l17.2-9.1c3.2-1.7 8.1-1.9 10.9-.4l20.3 10.9c2.8 1.5 2.4 4.1-.8 5.8l-17.3 9.1c-3.2 1.7-8.1 1.9-10.8.4z"/><path class="cls-55" d="M558.1 284.2L538 273.5c-2.7-1.5-2.4-4 .8-5.7l17-9c3.2-1.7 8-1.9 10.7-.4l20.1 10.7c2.7 1.5 2.4 4-.8 5.7l-17 9c-3.1 1.7-7.9 1.9-10.7.4z"/><path class="cls-56" d="M558.2 284l-19.8-10.6c-2.7-1.4-2.4-4 .8-5.6l16.7-8.9c3.1-1.7 7.9-1.8 10.6-.4l19.8 10.6c2.7 1.4 2.4 4-.8 5.6l-16.7 8.9c-3.2 1.7-7.9 1.9-10.6.4z"/><path class="cls-57" d="M558.2 283.9l-19.5-10.4c-2.7-1.4-2.3-3.9.8-5.5l16.5-8.7c3.1-1.6 7.7-1.8 10.4-.4l19.5 10.4c2.7 1.4 2.3 3.9-.8 5.5l-16.5 8.7c-3 1.6-7.7 1.8-10.4.4z"/><path class="cls-58" d="M558.3 283.7l-19.2-10.3c-2.6-1.4-2.3-3.8.7-5.5l16.2-8.6c3-1.6 7.6-1.8 10.3-.4l19.2 10.3c2.6 1.4 2.3 3.8-.7 5.5l-16.2 8.6c-3.1 1.6-7.7 1.8-10.3.4z"/><path class="cls-59" d="M558.4 283.5l-18.9-10.1c-2.6-1.4-2.3-3.8.7-5.4l16-8.5c3-1.6 7.5-1.8 10.1-.4l18.9 10.1c2.6 1.4 2.3 3.8-.7 5.4l-16 8.5c-3 1.6-7.6 1.8-10.1.4z"/><path class="cls-60" d="M558.4 283.3l-18.6-10c-2.5-1.4-2.2-3.7.7-5.3l15.8-8.4c2.9-1.6 7.4-1.7 10-.4l18.6 10c2.5 1.4 2.2 3.7-.7 5.3l-15.8 8.4c-3 1.6-7.4 1.8-10 .4z"/><path class="cls-61" d="M558.5 283.1l-18.3-9.8c-2.5-1.3-2.2-3.7.7-5.2l15.5-8.2c2.9-1.5 7.3-1.7 9.8-.4l18.3 9.8c2.5 1.3 2.2 3.7-.7 5.2l-15.5 8.2c-2.9 1.6-7.3 1.8-9.8.4z"/><path class="cls-62" d="M558.5 282.9l-18.1-9.7c-2.5-1.3-2.2-3.6.7-5.1l15.3-8.1c2.9-1.5 7.2-1.7 9.7-.4l18.1 9.7c2.5 1.3 2.2 3.6-.7 5.1l-15.3 8.1c-2.9 1.6-7.2 1.8-9.7.4z"/><path class="cls-63" d="M558.6 282.8l-17.8-9.5c-2.4-1.3-2.1-3.6.7-5.1l15-8c2.8-1.5 7.1-1.6 9.5-.3l17.8 9.5c2.4 1.3 2.1 3.6-.7 5.1l-15 8c-2.8 1.4-7.1 1.6-9.5.3z"/><path class="cls-64" d="M558.7 282.6l-17.5-9.4c-2.4-1.3-2.1-3.5.7-5l14.8-7.8c2.8-1.5 7-1.6 9.3-.3l17.5 9.4c2.4 1.3 2.1 3.5-.7 5l-14.8 7.7c-2.8 1.5-7 1.7-9.3.4z"/><path class="cls-65" d="M558.7 282.4l-17.2-9.2c-2.4-1.3-2.1-3.5.7-4.9l14.6-7.7c2.7-1.4 6.8-1.6 9.2-.3l17.2 9.2c2.4 1.3 2.1 3.5-.7 4.9l-14.6 7.7c-2.7 1.4-6.8 1.6-9.2.3z"/><path class="cls-66" d="M558.8 282.2l-16.9-9c-2.3-1.2-2-3.4.7-4.8l14.3-7.6c2.7-1.4 6.7-1.6 9-.3l16.9 9c2.3 1.2 2 3.4-.7 4.8l-14.3 7.6c-2.7 1.4-6.7 1.5-9 .3z"/><path class="cls-67" d="M558.8 282l-16.6-8.9c-2.3-1.2-2-3.3.6-4.7l14.1-7.5c2.6-1.4 6.6-1.5 8.9-.3l16.6 8.9c2.3 1.2 2 3.3-.6 4.7l-14.1 7.5c-2.6 1.4-6.6 1.5-8.9.3z"/><path class="cls-68" d="M558.9 281.8l-16.4-8.7c-2.2-1.2-2-3.3.6-4.7l13.8-7.3c2.6-1.4 6.5-1.5 8.7-.3l16.4 8.7c2.2 1.2 2 3.3-.6 4.7l-13.8 7.3c-2.6 1.4-6.5 1.5-8.7.3z"/><path class="cls-69" d="M559 281.7l-16.1-8.6c-2.2-1.2-1.9-3.2.6-4.6l13.6-7.2c2.5-1.3 6.4-1.5 8.6-.3l16.1 8.6c2.2 1.2 1.9 3.2-.6 4.6l-13.6 7.2c-2.6 1.3-6.4 1.4-8.6.3z"/><path class="cls-70" d="M559 281.5l-15.8-8.5c-2.2-1.2-1.9-3.2.6-4.5l13.4-7.1c2.5-1.3 6.3-1.5 8.4-.3l15.8 8.4c2.2 1.2 1.9 3.2-.6 4.5l-13.4 7.1c-2.5 1.4-6.2 1.5-8.4.4z"/><path class="cls-71" d="M559.1 281.3l-15.5-8.3c-2.1-1.1-1.9-3.1.6-4.4l13.1-7c2.5-1.3 6.2-1.4 8.3-.3l15.5 8.3c2.1 1.1 1.9 3.1-.6 4.4l-13.1 7c-2.5 1.3-6.2 1.4-8.3.3z"/><path class="cls-72" d="M559.1 281.1l-15.2-8.1c-2.1-1.1-1.8-3.1.6-4.3l12.9-6.8c2.4-1.3 6.1-1.4 8.1-.3l15.2 8.1c2.1 1.1 1.8 3.1-.6 4.3l-12.9 6.8c-2.3 1.3-6 1.4-8.1.3z"/><path class="cls-73" d="M559.2 280.9l-14.9-8c-2-1.1-1.8-3 .6-4.2l12.6-6.7c2.4-1.3 5.9-1.4 8-.3l14.9 8c2 1.1 1.8 3-.6 4.2l-12.6 6.7c-2.4 1.3-6 1.4-8 .3z"/><path class="cls-74" d="M559.2 280.7l-14.7-7.8c-2-1.1-1.7-2.9.6-4.2l12.4-6.6a9.4 9.4 0 017.8-.3l14.7 7.8c2 1.1 1.7 2.9-.6 4.2l-12.4 6.6a9.4 9.4 0 01-7.8.3z"/><path class="cls-75" d="M559.3 280.6l-14.4-7.7c-2-1.1-1.7-2.9.6-4.1l12.2-6.4a9.2 9.2 0 017.7-.3l14.4 7.7c2 1.1 1.7 2.9-.6 4.1l-12.2 6.4a9.2 9.2 0 01-7.7.3z"/><path class="cls-76" d="M559.4 280.4l-14.1-7.5c-1.9-1-1.7-2.8.5-4l11.9-6.3a9 9 0 017.5-.3l14.1 7.5c1.9 1 1.7 2.8-.5 4l-11.9 6.3a9 9 0 01-7.5.3z"/><path class="cls-77" d="M559.4 280.2l-13.8-7.4c-1.9-1-1.6-2.8.5-3.9l11.7-6.2a8.8 8.8 0 017.4-.3l13.8 7.4c1.9 1 1.6 2.8-.5 3.9l-11.7 6.2a8.8 8.8 0 01-7.4.3z"/><path class="cls-78" d="M559.5 280l-13.5-7.2c-1.8-1-1.6-2.7.5-3.8l11.4-6.1a8.6 8.6 0 017.2-.3l13.5 7.2c1.8 1 1.6 2.7-.5 3.8l-11.4 6.1a8.6 8.6 0 01-7.2.3z"/><path class="cls-79" d="M559.5 279.8l-13.2-7.1c-1.8-1-1.6-2.7.5-3.8L558 263a8.5 8.5 0 017.1-.3l13.2 7.1c1.8 1 1.6 2.7-.5 3.8l-11.2 5.9a8.5 8.5 0 01-7.1.3z"/><path class="cls-80" d="M559.6 279.6l-12.9-6.9c-1.8-.9-1.5-2.6.5-3.7l10.9-5.8a8.3 8.3 0 016.9-.3l12.9 6.9c1.8.9 1.5 2.6-.5 3.7l-10.9 5.8a8.3 8.3 0 01-6.9.3z"/><path class="cls-81" d="M559.7 279.5l-12.7-6.8c-1.7-.9-1.5-2.5.5-3.6l10.7-5.7a8.1 8.1 0 016.8-.2l12.7 6.8c1.7.9 1.5 2.5-.5 3.6l-10.7 5.7a8.1 8.1 0 01-6.8.2z"/><path class="cls-82" d="M559.7 279.3l-12.4-6.6c-1.7-.9-1.5-2.5.5-3.5l10.5-5.6a7.9 7.9 0 016.6-.2l12.4 6.6c1.7.9 1.5 2.5-.5 3.5l-10.5 5.5a7.9 7.9 0 01-6.6.3z"/><path class="cls-83" d="M559.8 279.1l-12.1-6.5c-1.7-.9-1.4-2.4.5-3.4l10.2-5.4a7.7 7.7 0 016.5-.2l12.1 6.5c1.7.9 1.4 2.4-.5 3.4l-10.2 5.4a7.7 7.7 0 01-6.5.2z"/><path class="cls-84" d="M559.8 278.9l-11.8-6.3c-1.6-.9-1.4-2.4.5-3.4l10-5.3a7.5 7.5 0 016.3-.2l11.8 6.3c1.6.9 1.4 2.4-.5 3.4l-10 5.3a7.5 7.5 0 01-6.3.2z"/><path class="cls-85" d="M559.9 278.7l-11.5-6.2c-1.6-.8-1.4-2.3.4-3.3l9.7-5.2a7.4 7.4 0 016.2-.2l11.5 6.2c1.6.8 1.4 2.3-.4 3.3l-9.7 5.2a7.4 7.4 0 01-6.2.2z"/><path class="cls-86" d="M560 278.6l-11.2-6c-1.5-.8-1.3-2.3.4-3.2l9.5-5a7.2 7.2 0 016-.2l11.2 6c1.5.8 1.3 2.3-.4 3.2l-9.5 5a7.2 7.2 0 01-6 .2z"/><path class="cls-87" d="M560 278.4l-11-5.9c-1.5-.8-1.3-2.2.4-3.1l9.3-4.9a7 7 0 015.9-.2l11 5.9c1.5.8 1.3 2.2-.4 3.1l-9.3 4.9a7 7 0 01-5.9.2z"/><path class="cls-88" d="M560.1 278.2l-10.7-5.7c-1.5-.8-1.3-2.1.4-3l9-4.8a6.8 6.8 0 015.7-.2l10.7 5.7c1.5.8 1.3 2.1-.4 3l-9 4.8a6.8 6.8 0 01-5.7.2z"/><path class="cls-89" d="M560.1 278l-10.4-5.6c-1.4-.8-1.2-2.1.4-3l8.8-4.7a6.6 6.6 0 015.6-.2l10.4 5.6c1.4.8 1.2 2.1-.4 3l-8.8 4.7a6.6 6.6 0 01-5.6.2z"/><path class="cls-90" d="M560.2 277.8l-10.1-5.4c-1.4-.7-1.2-2 .4-2.9l8.5-4.5a6.5 6.5 0 015.4-.2l10.1 5.4c1.4.7 1.2 2-.4 2.9l-8.5 4.5a6.5 6.5 0 01-5.4.2z"/><path class="cls-91" d="M560.3 277.6l-9.8-5.3c-1.3-.7-1.2-2 .4-2.8l8.3-4.4a6.3 6.3 0 015.2-.2l9.8 5.3c1.3.7 1.2 2-.4 2.8l-8.3 4.4a6.3 6.3 0 01-5.2.2z"/><path class="cls-92" d="M560.3 277.5l-9.5-5.1c-1.3-.7-1.1-1.9.4-2.7l8.1-4.3a6.1 6.1 0 015.1-.2l9.5 5.1c1.3.7 1.1 1.9-.4 2.7l-8.1 4.3a6.1 6.1 0 01-5.1.2z"/><path id="_Path_6" data-name="&lt;Path&gt;" class="cls-93" d="M560.4 277.3l-9.3-4.9c-1.3-.7-1.1-1.9.4-2.6l7.8-4.2a5.9 5.9 0 014.9-.2l9.3 4.9c1.3.7 1.1 1.9-.4 2.6l-7.8 4.2a5.9 5.9 0 01-4.9.2z"/></g><g id="_7" data-name="7"><g id="_Group_5" data-name="&lt;Group&gt;"><path id="_Path_7" data-name="&lt;Path&gt;" class="cls-94" d="M577.5 268.7v-36.9l-30.1-.5v36.6c-.1.3 0 .6.4.8l13.7 7.5a3.3 3.3 0 002.8-.1l12.6-6.5c.4-.3.6-.6.6-.9z"/><path id="_Path_8" data-name="&lt;Path&gt;" class="cls-94" d="M561.4 239.2l-13.7-7.5c-.7-.4-.6-1 .2-1.5l12.6-6.5a3.3 3.3 0 012.8-.1l13.7 7.5c.7.4.6 1-.2 1.5l-12.6 6.5a3.3 3.3 0 01-2.8.1z"/></g><path id="_Path_9" data-name="&lt;Path&gt;" class="cls-94" d="M561.9 236.1l-8.4-4.6c-.4-.2-.4-.6.1-.9l7.7-4a2 2 0 011.7 0l8.4 4.6c.4.2.4.6-.1.9l-7.7 4a2 2 0 01-1.7 0z"/><g id="_Group_6" data-name="&lt;Group&gt;"><path id="_Path_10" data-name="&lt;Path&gt;" class="cls-94" d="M559.1 265.1a1.6 1.6 0 00-.8-1.4l-10.2-5.5h-.6l-2.5 1.4 11.1 7.5 2.6-1.4h.2a.7.7 0 00.2-.6z"/><path id="_Path_11" data-name="&lt;Path&gt;" class="cls-94" d="M555.7 267l-10.2-5.5a1.6 1.6 0 01-.8-1.4c0-.5.4-.7.8-.5l10.2 5.5a1.6 1.6 0 01.8 1.4c0 .5-.4.8-.8.5z"/></g><g id="_Group_7" data-name="&lt;Group&gt;"><path id="_Path_12" data-name="&lt;Path&gt;" class="cls-94" d="M559.1 261a1.6 1.6 0 00-.8-1.4l-10.2-5.5h-.6l-2.5 1.4 11.1 7.5 2.6-1.4h.2a.7.7 0 00.2-.6z"/><path id="_Path_13" data-name="&lt;Path&gt;" class="cls-94" d="M555.7 262.9l-10.2-5.5a1.6 1.6 0 01-.8-1.4c0-.5.4-.7.8-.5l10.2 5.5a1.6 1.6 0 01.8 1.4c0 .5-.4.7-.8.5z"/></g><g id="_Group_8" data-name="&lt;Group&gt;"><path id="_Path_14" data-name="&lt;Path&gt;" class="cls-94" d="M559.1 256.9a1.6 1.6 0 00-.8-1.4l-10.1-5.5h-.6l-2.5 1.4 11.1 7.5 2.6-1.4h.2a.7.7 0 00.1-.6z"/><path id="_Path_15" data-name="&lt;Path&gt;" class="cls-94" d="M555.7 258.8l-10.2-5.5a1.6 1.6 0 01-.8-1.4c0-.5.4-.7.8-.5l10.2 5.5a1.6 1.6 0 01.8 1.4c0 .5-.4.7-.8.5z"/></g><g id="_Group_9" data-name="&lt;Group&gt;"><path id="_Path_16" data-name="&lt;Path&gt;" class="cls-94" d="M559.1 252.7a1.6 1.6 0 00-.8-1.4l-10.2-5.5h-.6l-2.5 1.4 11.1 7.5 2.6-1.4h.2a.7.7 0 00.2-.6z"/><path id="_Path_17" data-name="&lt;Path&gt;" class="cls-94" d="M555.7 254.7l-10.2-5.5a1.6 1.6 0 01-.8-1.4c0-.5.4-.7.8-.5l10.2 5.5a1.6 1.6 0 01.8 1.4c0 .5-.4.7-.8.5z"/></g><g id="_Group_10" data-name="&lt;Group&gt;"><path id="_Path_18" data-name="&lt;Path&gt;" class="cls-94" d="M559.1 248.6a1.6 1.6 0 00-.8-1.4l-10.2-5.5h-.6l-2.5 1.4 11.1 7.5 2.6-1.4h.2a.7.7 0 00.2-.6z"/><path id="_Path_19" data-name="&lt;Path&gt;" class="cls-94" d="M555.7 250.5l-10.2-5.5a1.6 1.6 0 01-.8-1.4c0-.5.4-.7.8-.5l10.2 5.5a1.6 1.6 0 01.8 1.4c0 .5-.4.8-.8.5z"/></g><g id="_Group_11" data-name="&lt;Group&gt;"><path id="_Path_20" data-name="&lt;Path&gt;" class="cls-94" d="M559.1 244.5a1.6 1.6 0 00-.8-1.4l-10.2-5.5h-.6L545 239l11.1 7.5 2.6-1.4h.2a.7.7 0 00.2-.6z"/><path id="_Path_21" data-name="&lt;Path&gt;" class="cls-94" d="M555.7 246.4l-10.2-5.5a1.6 1.6 0 01-.8-1.4c0-.5.4-.7.8-.5l10.2 5.5a1.6 1.6 0 01.8 1.4c0 .5-.4.7-.8.5z"/></g><path id="_Path_22" data-name="&lt;Path&gt;" class="cls-94" d="M553.5 231.5l1.4.8 6.4-3.3a2 2 0 011.7 0l7 3.8 1.3-.7c.5-.3.6-.7.1-.9l-8.4-4.6a2 2 0 00-1.7 0l-7.7 4c-.5.3-.5.7-.1.9z"/><g id="_Group_12" data-name="&lt;Group&gt;"><g id="_Group_13" data-name="&lt;Group&gt;"><path id="_Path_23" data-name="&lt;Path&gt;" class="cls-94" d="M575.3 239.4l-9.5 5.1v-1.4l9.5-5v1.3z"/><path id="_Path_24" data-name="&lt;Path&gt;" class="cls-94" d="M575.3 242.1l-2.9 1.5v-1.3l2.9-1.6v1.4z"/><path id="_Path_25" data-name="&lt;Path&gt;" class="cls-94" d="M571.3 244.2l-5.5 2.9v-1.3l5.5-3v1.4z"/><path id="_Path_26" data-name="&lt;Path&gt;" class="cls-94" d="M575.3 244.6l-6.8 3.6v-1.4l6.8-3.6v1.4z"/><path id="_Path_27" data-name="&lt;Path&gt;" class="cls-94" d="M567.4 248.8l-1.6.9v-1.4l1.6-.9v1.4z"/><path id="_Path_28" data-name="&lt;Path&gt;" class="cls-94" d="M575.3 247.2l-9.5 5.1v-1.4l9.5-5v1.3z"/><path id="_Path_29" data-name="&lt;Path&gt;" class="cls-94" d="M575.3 249.9l-2.9 1.5v-1.3l2.9-1.6v1.4z"/><path id="_Path_30" data-name="&lt;Path&gt;" class="cls-94" d="M571.3 252l-5.5 2.9v-1.3l5.5-3v1.4z"/><path id="_Path_31" data-name="&lt;Path&gt;" class="cls-94" d="M575.3 252.4l-6.8 3.6v-1.4l6.8-3.6v1.4z"/><path id="_Path_32" data-name="&lt;Path&gt;" class="cls-94" d="M567.4 256.6l-1.6.9v-1.4l1.6-.9v1.4z"/><path id="_Path_33" data-name="&lt;Path&gt;" class="cls-94" d="M575.3 254.9l-9.5 5.1v-1.4l9.5-5.1v1.4z"/></g><path id="_Path_34" data-name="&lt;Path&gt;" class="cls-94" d="M575.3 257.5l-2.9 1.6v-1.4l2.9-1.6v1.4z"/><path id="_Path_35" data-name="&lt;Path&gt;" class="cls-94" d="M571.3 259.7l-5.5 2.9v-1.4l5.5-2.9v1.4z"/><path id="_Path_36" data-name="&lt;Path&gt;" class="cls-94" d="M575.3 260l-6.8 3.7v-1.4l6.8-3.6v1.3z"/><path id="_Path_37" data-name="&lt;Path&gt;" class="cls-94" d="M567.4 264.3l-1.6.8v-1.4l1.6-.8v1.4z"/><path id="_Path_38" data-name="&lt;Path&gt;" class="cls-94" d="M575.3 262.7l-9.5 5.1v-1.4l9.5-5.1v1.4z"/></g></g></g><g class="cls-50"><path class="cls-95" d="M445.2 274.3h5.4v11.57h-5.4z"/><path class="cls-95" d="M449.8 287a4.2 4.2 0 01-3.8 0 1.2 1.2 0 010-2.2 4.2 4.2 0 013.8 0 1.2 1.2 0 010 2.2zm-6.2-28.8h8.7v18.15h-8.7z"/><path class="cls-95" d="M445.2 276.2v3.9a6.9 6.9 0 005.4 0v-3.9a6.9 6.9 0 00-5.4 0z"/><path class="cls-95" d="M451 278.1a6.8 6.8 0 01-6.1 0c-1.7-1-1.7-2.6 0-3.5a6.8 6.8 0 016.1 0c1.7.9 1.7 2.5 0 3.5zm-22.7-12.7h5.4v11.57h-5.4z"/><path class="cls-95" d="M432.9 278a4.2 4.2 0 01-3.8 0 1.2 1.2 0 010-2.2 4.2 4.2 0 013.8 0 1.2 1.2 0 010 2.2zm-6.2-28.7h8.7v18.15h-8.7z"/><path class="cls-95" d="M428.3 267.3v3.9a6.9 6.9 0 005.4 0v-3.9a6.9 6.9 0 00-5.4 0z"/><path class="cls-95" d="M434.1 269.2a6.8 6.8 0 01-6.1 0c-1.7-1-1.7-2.6 0-3.5a6.8 6.8 0 016.1 0c1.7.9 1.7 2.5 0 3.5zm-23.2-14.1h5.4v11.57h-5.4z"/><path class="cls-95" d="M415.5 267.8a4.2 4.2 0 01-3.8 0 1.2 1.2 0 010-2.2 4.2 4.2 0 013.8 0 1.2 1.2 0 010 2.2zm-6.3-28.8h8.7v18.15h-8.7z"/><path class="cls-95" d="M410.9 257v3.9a6.9 6.9 0 005.4 0V257a6.9 6.9 0 00-5.4 0z"/><path class="cls-95" d="M416.6 258.9a6.8 6.8 0 01-6.1 0c-1.7-1-1.7-2.6 0-3.5a6.8 6.8 0 016.1 0c1.7.9 1.7 2.5 0 3.5z"/></g><g id="_Group_14" data-name="&lt;Group&gt;"><g id="_Group_15" data-name="&lt;Group&gt;"><g id="_Group_16" data-name="&lt;Group&gt;" stroke-miterlimit="10"><path id="_Path_39" data-name="&lt;Path&gt;" d="M383.9 167a18.1 18.1 0 0112.5-1.5 33 33 0 019.4 3.6 50.3 50.3 0 019 6.4l-16.1 9a50.3 50.3 0 00-9-6.4 33.1 33.1 0 00-9.4-3.6 18.1 18.1 0 00-12.5 1.5z" fill="url(#linear-gradient-46)" stroke="url(#linear-gradient-47)"/><path id="_Path_40" data-name="&lt;Path&gt;" d="M425.7 158.6c4-2.2 9-2.9 14.5-1.8a38.2 38.2 0 0110.8 4.1 64.1 64.1 0 0117.3 14.4c9.4 11 16.2 25.1 17.8 38.2a33.5 33.5 0 019 3.5 55.4 55.4 0 0114.9 12.5c9.4 11 15.8 25.6 15.8 38.3 0 9.3-3.5 15.8-9 18.9l-16.1 9c5.5-3.1 9-9.6 9-18.9 0-12.7-6.3-27.3-15.8-38.3A55.4 55.4 0 00479 226a33.5 33.5 0 00-9-3.5c-1.6-13.1-8.4-27.2-17.8-38.2a64.1 64.1 0 00-17.3-14.4 38.2 38.2 0 00-10.8-4.1c-5.5-1.1-10.5-.5-14.5 1.8z" stroke="#13139e" fill="url(#linear-gradient-48)"/></g><g id="_Group_17" data-name="&lt;Group&gt;"><path id="_Path_41" data-name="&lt;Path&gt;" d="M437.3 168.5c-17.8-9.8-32.7-3.6-35.3 13.8a50.4 50.4 0 00-9-6.4c-17-9.4-30.8-1.8-30.9 16.8s13.7 41.4 30.7 50.8l88.3 48.7c17 9.4 30.8 1.8 30.9-16.8s-13.7-41.4-30.7-50.8a33.5 33.5 0 00-9-3.5c-2.4-20.2-17.1-42.7-35-52.6z" fill="url(#linear-gradient-49)" stroke="#42e8e0" stroke-miterlimit="10"/></g></g></g><path fill="#1a3449" d="M436.7 243.3l2.4-1.3-2.4-1.8v3.1z"/><path fill="#5793ce" d="M429.1 210.1l2.6-1.2.1 1.3-2.7-.1z"/><path fill="#173a56" d="M444.5 235.5l2.5-1.2-4.7-4.6 2.2 5.8z"/><path d="M438.3 241.9l-13-6.8a2.4 2.4 0 01-1.2-2v-13.4l15.4 8.1v13.4c0 .8-.5 1.1-1.2.7z" fill="#173751"/><path d="M430.9 209l-14 8.1c-.6.3-.1 1.6.8 2.1l14.3 7.5 14.3 7.5c.9.5 1.4-.3.8-1.3l-13.8-22.7c-.7-.9-1.8-1.5-2.4-1.2z" fill="#132f47"/><path class="cls-104" d="M436.5 243.2l-13-6.8a2.4 2.4 0 01-1.2-2V221l15.4 8.1v13.4c0 .7-.5 1-1.2.7z"/><path class="cls-104" d="M428.9 210.2l-14.1 8.1c-.6.3-.1 1.6.8 2.1l14.4 7.5 14.4 7.5c.9.5 1.4-.3.8-1.3l-14-22.8c-.6-.9-1.7-1.5-2.3-1.1z"/><g id="_2" data-name="2"><g id="_Group_18" data-name="&lt;Group&gt;" class="cls-51"><path id="_Path_42" data-name="&lt;Path&gt;" class="cls-52" d="M197.9 306.7l-8.9-5c-1.2-.7-1.1-1.9.3-2.7l7.5-4.3a5.3 5.3 0 014.7-.2l8.9 5c1.2.7 1.1 1.9-.3 2.7l-7.5 4.3a5.3 5.3 0 01-4.7.2z"/><path class="cls-53" d="M197.9 306.7l-8.8-5c-1.2-.7-1.1-1.9.3-2.7l7.4-4.2a5.3 5.3 0 014.7-.2l8.8 5c1.2.7 1.1 1.9-.3 2.7l-7.4 4.2a5.3 5.3 0 01-4.7.2z"/><path class="cls-54" d="M198 306.6l-8.7-4.9c-1.2-.7-1-1.8.3-2.6l7.3-4.2a5.2 5.2 0 014.6-.2l8.7 4.9c1.2.7 1 1.8-.3 2.6l-7.3 4.2a5.2 5.2 0 01-4.6.2z"/><path class="cls-55" d="M198 306.5l-8.5-4.8c-1.2-.7-1-1.8.3-2.6l7.2-4.1a5.1 5.1 0 014.6-.2l8.5 4.8c1.2.7 1 1.8-.3 2.6l-7.2 4.1a5.1 5.1 0 01-4.6.2z"/><path class="cls-56" d="M198 306.4l-8.4-4.8c-1.2-.7-1-1.8.3-2.6l7.1-4a5.1 5.1 0 014.5-.2l8.4 4.8c1.2.7 1 1.8-.3 2.6l-7.1 4a5.1 5.1 0 01-4.5.2z"/><path class="cls-57" d="M198 306.3l-8.3-4.7c-1.1-.6-1-1.8.3-2.5l7-4a5 5 0 014.4-.2l8.3 4.7c1.1.6 1 1.8-.3 2.5l-7 4a5 5 0 01-4.4.2z"/><path class="cls-58" d="M198.1 306.2l-8.2-4.6c-1.1-.6-1-1.7.3-2.5l6.9-3.9a4.9 4.9 0 014.4-.2l8.2 4.6c1.1.6 1 1.7-.3 2.5l-6.9 3.9a4.9 4.9 0 01-4.4.2z"/><path class="cls-59" d="M198.1 306.2l-8.1-4.6c-1.1-.6-1-1.7.3-2.4l6.8-3.9a4.8 4.8 0 014.3-.2l8.1 4.6c1.1.6 1 1.7-.3 2.4l-6.8 3.9a4.8 4.8 0 01-4.3.2z"/><path class="cls-60" d="M198.1 306.1l-7.9-4.5c-1.1-.6-1-1.7.3-2.4l6.7-3.8a4.8 4.8 0 014.2-.2l7.9 4.5c1.1.6 1 1.7-.3 2.4l-6.7 3.8a4.8 4.8 0 01-4.2.2z"/><path class="cls-61" d="M198.1 306l-7.8-4.4c-1.1-.6-.9-1.7.3-2.4l6.6-3.8a4.7 4.7 0 014.2-.2l7.8 4.4c1.1.6.9 1.7-.3 2.4l-6.6 3.8a4.7 4.7 0 01-4.2.2z"/><path class="cls-62" d="M198.2 305.9l-7.7-4.4c-1.1-.6-.9-1.6.3-2.3l6.5-3.7a4.6 4.6 0 014.1-.2l7.7 4.4c1.1.6.9 1.6-.3 2.3l-6.5 3.7a4.6 4.6 0 01-4.1.2z"/><path class="cls-63" d="M198.2 305.8l-7.6-4.3c-1-.6-.9-1.6.3-2.3l6.4-3.6a4.5 4.5 0 014-.2l7.6 4.3c1 .6.9 1.6-.3 2.3l-6.4 3.6a4.5 4.5 0 01-4 .2z"/><path class="cls-64" d="M198.2 305.7l-7.4-4.2c-1-.6-.9-1.6.3-2.3l6.3-3.6a4.5 4.5 0 014-.2l7.4 4.2c1 .6.9 1.6-.3 2.3l-6.3 3.6a4.5 4.5 0 01-4 .2z"/><path class="cls-65" d="M198.2 305.7l-7.3-4.1c-1-.6-.9-1.6.3-2.2l6.2-3.5a4.4 4.4 0 013.9-.2l7.3 4.1c1 .6.9 1.6-.3 2.2l-6.2 3.5a4.4 4.4 0 01-3.9.2z"/><path class="cls-66" d="M198.3 305.6l-7.2-4.1c-1-.6-.9-1.5.3-2.2l6.1-3.5a4.3 4.3 0 013.8-.2l7.2 4.1c1 .6.9 1.5-.3 2.2l-6.1 3.5a4.3 4.3 0 01-3.8.2z"/><path class="cls-67" d="M198.3 305.5l-7.1-4c-1-.5-.8-1.5.3-2.1l6-3.4a4.3 4.3 0 013.8-.2l7.1 4c1 .5.8 1.5-.3 2.1l-6 3.4a4.3 4.3 0 01-3.8.2z"/><path class="cls-68" d="M198.3 305.4l-7-3.9c-1-.5-.8-1.5.3-2.1l5.9-3.3a4.2 4.2 0 013.7-.2l7 3.9c1 .5.8 1.5-.3 2.1l-5.9 3.3a4.2 4.2 0 01-3.7.2z"/><path class="cls-69" d="M198.3 305.3l-6.8-3.9c-.9-.5-.8-1.5.3-2.1l5.8-3.3a4.1 4.1 0 013.6-.2l6.8 3.9c.9.5.8 1.5-.3 2.1l-5.8 3.3a4.1 4.1 0 01-3.6.2z"/><path class="cls-70" d="M198.4 305.2l-6.7-3.8c-.9-.5-.8-1.4.3-2l5.7-3.2a4 4 0 013.6-.2l6.7 3.8c.9.5.8 1.4-.3 2L202 305a4 4 0 01-3.6.2z"/><path class="cls-71" d="M198.4 305.2l-6.6-3.7c-.9-.5-.8-1.4.2-2l5.6-3.2a4 4 0 013.5-.1l6.6 3.7c.9.5.8 1.4-.2 2l-5.6 3.2a4 4 0 01-3.5.1z"/><path class="cls-72" d="M198.4 305.1l-6.5-3.7c-.9-.5-.8-1.4.2-2l5.5-3.1a3.9 3.9 0 013.5-.1l6.5 3.7c.9.5.8 1.4-.2 2l-5.5 3.1a3.9 3.9 0 01-3.5.1z"/><path class="cls-73" d="M198.4 305l-6.4-3.6c-.9-.5-.8-1.4.2-1.9l5.4-3.1a3.8 3.8 0 013.4-.1l6.4 3.6c.9.5.8 1.4-.2 1.9l-5.4 3.1a3.8 3.8 0 01-3.4.1z"/><path class="cls-74" d="M198.5 304.9l-6.2-3.5c-.9-.5-.7-1.3.2-1.9l5.3-3a3.7 3.7 0 013.3-.1l6.2 3.5c.9.5.7 1.3-.2 1.9l-5.3 3a3.7 3.7 0 01-3.3.1z"/><path class="cls-75" d="M198.5 304.8l-6.1-3.5c-.8-.5-.7-1.3.2-1.9l5.2-2.9a3.7 3.7 0 013.3-.1l6.1 3.5c.8.5.7 1.3-.2 1.9l-5.2 2.9a3.7 3.7 0 01-3.3.1z"/><path class="cls-76" d="M198.5 304.7l-6-3.4c-.8-.5-.7-1.3.2-1.8l5-2.9a3.6 3.6 0 013.2-.1l6 3.4c.8.5.7 1.3-.2 1.8l-5 2.9a3.6 3.6 0 01-3.2.1z"/><path class="cls-77" d="M198.5 304.7l-5.9-3.3c-.8-.5-.7-1.3.2-1.8l4.9-2.8a3.5 3.5 0 013.1-.1l5.9 3.3c.8.5.7 1.3-.2 1.8l-4.9 2.8a3.5 3.5 0 01-3.1.1z"/><path class="cls-78" d="M198.6 304.6l-5.8-3.3c-.8-.4-.7-1.2.2-1.7l4.8-2.8a3.5 3.5 0 013.1-.1l5.8 3.3c.8.4.7 1.2-.2 1.7l-4.8 2.8a3.5 3.5 0 01-3.1.1z"/><path class="cls-79" d="M198.6 304.5l-5.6-3.2c-.8-.4-.7-1.2.2-1.7l4.7-2.7a3.4 3.4 0 013-.1l5.6 3.2c.8.4.7 1.2-.2 1.7l-4.7 2.7a3.4 3.4 0 01-3 .1z"/><path class="cls-80" d="M198.6 304.4l-5.5-3.1c-.8-.4-.7-1.2.2-1.7l4.7-2.6a3.3 3.3 0 012.9-.1l5.5 3.1c.8.4.7 1.2-.2 1.7l-4.6 2.7a3.3 3.3 0 01-3 0z"/><path class="cls-81" d="M198.6 304.3l-5.4-3.1c-.7-.4-.6-1.1.2-1.6l4.6-2.6a3.2 3.2 0 012.9-.1l5.4 3.1c.7.4.6 1.1-.2 1.6l-4.5 2.6a3.2 3.2 0 01-3 .1z"/><path class="cls-82" d="M198.7 304.2l-5.3-3c-.7-.4-.6-1.1.2-1.6l4.4-2.5a3.2 3.2 0 012.8-.1l5.3 3c.7.4.6 1.1-.2 1.6l-4.4 2.5a3.2 3.2 0 01-2.8.1z"/><path class="cls-83" d="M198.7 304.2l-5.1-2.9c-.7-.4-.6-1.1.2-1.6l4.3-2.5a3.1 3.1 0 012.7-.1l5.2 2.9c.7.4.6 1.1-.2 1.6l-4.3 2.5a3.1 3.1 0 01-2.8.1z"/><path class="cls-84" d="M198.7 304.1l-5-2.8c-.7-.4-.6-1.1.2-1.5l4.2-2.4a3 3 0 012.7-.1l5 2.8c.7.4.6 1.1-.2 1.5l-4.2 2.4a3 3 0 01-2.7.1z"/><path class="cls-85" d="M198.7 304l-4.9-2.8c-.7-.4-.6-1 .2-1.5l4.1-2.4a2.9 2.9 0 012.6-.1l4.9 2.8c.7.4.6 1-.2 1.5l-4.1 2.4a2.9 2.9 0 01-2.6.1z"/><path class="cls-86" d="M198.8 303.9l-4.8-2.7c-.7-.4-.6-1 .2-1.5l4-2.3a2.9 2.9 0 012.6-.1l4.8 2.7c.7.4.6 1-.2 1.5l-4 2.3a2.9 2.9 0 01-2.6.1z"/><path class="cls-87" d="M198.8 303.8l-4.7-2.6c-.6-.4-.6-1 .2-1.4l3.9-2.2a2.8 2.8 0 012.5-.1l4.7 2.6c.6.4.6 1-.2 1.4l-3.9 2.2a2.8 2.8 0 01-2.5.1z"/><path class="cls-88" d="M198.8 303.7l-4.5-2.6c-.6-.4-.5-1 .2-1.4l3.8-2.2a2.7 2.7 0 012.4-.1l4.5 2.6c.6.4.5 1-.2 1.4l-3.8 2.2a2.7 2.7 0 01-2.4.1z"/><path class="cls-89" d="M198.8 303.7l-4.4-2.5c-.6-.3-.5-.9.2-1.3l3.7-2.1a2.7 2.7 0 012.4-.1l4.4 2.5c.6.3.5.9-.2 1.3l-3.7 2.1a2.7 2.7 0 01-2.4.1z"/><path class="cls-90" d="M198.9 303.6l-4.3-2.4c-.6-.3-.5-.9.2-1.3l3.6-2.1a2.6 2.6 0 012.3-.1l4.3 2.4c.6.3.5.9-.2 1.3l-3.6 2.1a2.6 2.6 0 01-2.3.1z"/><path class="cls-91" d="M198.9 303.5l-4.2-2.4c-.6-.3-.5-.9.2-1.3l3.5-2a2.5 2.5 0 012.2-.1l4.2 2.4c.6.3.5.9-.2 1.3l-3.5 2a2.5 2.5 0 01-2.2.1z"/><path class="cls-92" d="M198.9 303.4l-4.1-2.3c-.6-.3-.5-.9.2-1.2l3.4-2a2.4 2.4 0 012.2-.1l4.1 2.3c.6.3.5.9-.2 1.2l-3.4 2a2.4 2.4 0 01-2.2.1z"/><path id="_Path_43" data-name="&lt;Path&gt;" class="cls-93" d="M198.9 303.3l-3.9-2.2c-.5-.3-.5-.8.1-1.2l3.3-1.9a2.4 2.4 0 012.1-.1l3.9 2.2c.5.3.5.8-.1 1.2l-3.3 1.9a2.4 2.4 0 01-2.1.1z"/></g><g id="_Group_19" data-name="&lt;Group&gt;"><g id="_Group_20" data-name="&lt;Group&gt;"><path id="_Path_44" data-name="&lt;Path&gt;" class="cls-94" d="M205.6 299.6v-5.5l-11.7-.2v5.4a.3.3 0 00.2.3l5.3 3.1a1.2 1.2 0 001.1 0l4.9-2.7c.1-.2.2-.3.2-.4z"/><path id="_Path_45" data-name="&lt;Path&gt;" class="cls-94" d="M199.3 297.2l-5.3-3.1c-.3-.2-.2-.4.1-.6l4.9-2.7a1.2 1.2 0 011.1 0l5.3 3.1c.3.2.2.4-.1.6l-4.9 2.7a1.2 1.2 0 01-1.1 0z"/></g><g id="_Group_21" data-name="&lt;Group&gt;"><path id="_Path_46" data-name="&lt;Path&gt;" class="cls-94" d="M205.6 292.7v-2.4h-3.9l-1.6-.9a1.2 1.2 0 00-1.1 0l-1.4.8h-3.7v2.4a.3.3 0 00.2.3l5.3 3.1a1.2 1.2 0 001.1 0l4.9-2.7c.1-.4.2-.5.2-.6z"/><path id="_Path_47" data-name="&lt;Path&gt;" class="cls-94" d="M199.3 293.4l-5.3-3.1c-.3-.2-.2-.4.1-.6l4.9-2.7a1.2 1.2 0 011.1 0l5.3 3.1c.3.2.2.4-.1.6l-4.9 2.7a1.2 1.2 0 01-1.1 0z"/><path id="_Path_48" data-name="&lt;Path&gt;" class="cls-94" d="M199.5 292.1l-3.3-1.9c-.2-.1-.1-.3.1-.4l3-1.7a.7.7 0 01.7 0l3.3 1.9c.2.1.1.3-.1.4l-3 1.7a.7.7 0 01-.7 0z"/><path id="_Path_49" data-name="&lt;Path&gt;" class="cls-94" d="M196.2 290.2l.5.3 2.5-1.4a.7.7 0 01.7 0l2.7 1.6.5-.3c.2-.1.2-.3.1-.4l-3.3-1.9a.7.7 0 00-.7 0l-3 1.7c-.1.2-.1.3 0 .4z"/></g></g></g><g id="_8-2" data-name="8" class="cls-50"><g id="_Group_22" data-name="&lt;Group&gt;" class="cls-51"><path id="_Path_50" data-name="&lt;Path&gt;" class="cls-52" d="M474.9 174.4L454 163.3c-2.9-1.5-2.5-4.2.8-5.9l17.7-9.4c3.3-1.8 8.3-1.9 11.2-.4l20.9 11.2c2.9 1.5 2.5 4.2-.8 5.9l-17.7 9.3c-3.3 1.8-8.3 2-11.2.4z"/><path class="cls-53" d="M475 174.3l-20.6-11c-2.8-1.5-2.5-4.1.8-5.9l17.4-9.2c3.3-1.7 8.2-1.9 11-.4l20.6 11c2.8 1.5 2.5 4.1-.8 5.9l-17.4 9.2c-3.2 1.7-8.2 1.9-11 .4z"/><path class="cls-54" d="M475.1 174.1l-20.3-10.9c-2.8-1.5-2.4-4.1.8-5.8l17.2-9.1c3.2-1.7 8.1-1.9 10.9-.4l20.3 10.9c2.8 1.5 2.4 4.1-.8 5.8l-17.2 9.1c-3.3 1.7-8.2 1.9-10.9.4z"/><path class="cls-55" d="M475.1 173.9L455 163.2c-2.7-1.5-2.4-4 .8-5.7l17-9c3.2-1.7 8-1.9 10.7-.4l20.1 10.7c2.7 1.5 2.4 4-.8 5.7l-17 9c-3.1 1.7-7.9 1.9-10.7.4z"/><path class="cls-56" d="M475.2 173.7l-19.8-10.6c-2.7-1.4-2.4-4 .8-5.6l16.7-8.9c3.1-1.7 7.9-1.8 10.6-.4l19.8 10.6c2.7 1.4 2.4 4-.8 5.6l-16.7 8.9c-3.2 1.7-7.9 1.9-10.6.4z"/><path class="cls-57" d="M475.2 173.5l-19.5-10.4c-2.7-1.4-2.3-3.9.8-5.5l16.5-8.7c3.1-1.6 7.7-1.8 10.4-.4l19.5 10.4c2.7 1.4 2.3 3.9-.8 5.5l-16.5 8.7c-3 1.7-7.7 1.9-10.4.4z"/><path class="cls-58" d="M475.3 173.3L456.1 163c-2.6-1.4-2.3-3.8.7-5.5l16.2-8.6c3-1.6 7.6-1.8 10.3-.4l19.2 10.3c2.6 1.4 2.3 3.8-.7 5.5l-16.2 8.7c-3.1 1.6-7.7 1.8-10.3.3z"/><path class="cls-59" d="M475.4 173.2l-18.9-10.1c-2.6-1.4-2.3-3.8.7-5.4l16-8.5c3-1.6 7.5-1.8 10.1-.4l18.9 10.1c2.6 1.4 2.3 3.8-.7 5.4l-16 8.5c-3 1.6-7.5 1.8-10.1.4z"/><path class="cls-60" d="M475.4 173l-18.6-10c-2.5-1.4-2.2-3.7.7-5.3l15.8-8.4c2.9-1.6 7.4-1.7 10-.4l18.6 10c2.5 1.4 2.2 3.7-.7 5.3l-15.8 8.4c-3 1.6-7.4 1.7-10 .4z"/><path class="cls-61" d="M475.5 172.8l-18.4-9.8c-2.5-1.3-2.2-3.7.7-5.2l15.5-8.2c2.9-1.5 7.3-1.7 9.8-.4l18.3 9.8c2.5 1.3 2.2 3.7-.7 5.2l-15.5 8.2c-2.8 1.6-7.2 1.7-9.7.4z"/><path class="cls-62" d="M475.5 172.6l-18-9.6c-2.5-1.3-2.2-3.6.7-5.1l15.3-8.1c2.9-1.5 7.2-1.7 9.7-.4l18.1 9.7c2.5 1.3 2.2 3.6-.7 5.1l-15.3 8.1c-3 1.5-7.3 1.6-9.8.3z"/><path class="cls-63" d="M475.6 172.4l-17.8-9.5c-2.4-1.3-2.1-3.6.7-5.1l15-8c2.8-1.5 7.1-1.6 9.5-.3l17.8 9.5c2.4 1.3 2.1 3.6-.7 5.1l-15 8c-2.8 1.5-7.1 1.6-9.5.3z"/><path class="cls-64" d="M475.7 172.3l-17.5-9.4c-2.4-1.3-2.1-3.5.7-5l14.8-7.8c2.8-1.5 7-1.6 9.3-.3l17.5 9.4c2.4 1.3 2.1 3.5-.7 5l-14.8 7.7c-2.8 1.5-6.9 1.6-9.3.4z"/><path class="cls-65" d="M475.7 172.1l-17.2-9.2c-2.4-1.3-2.1-3.5.7-4.9l14.6-7.7c2.7-1.4 6.8-1.6 9.2-.3l17.2 9.2c2.4 1.3 2.1 3.5-.7 4.9l-14.6 7.7c-2.7 1.4-6.8 1.5-9.2.3z"/><path class="cls-66" d="M475.8 171.9l-16.9-9c-2.3-1.2-2-3.4.7-4.8l14.3-7.6c2.7-1.4 6.7-1.6 9-.3l16.9 9c2.3 1.2 2 3.4-.7 4.8l-14.3 7.6c-2.7 1.4-6.7 1.5-9 .3z"/><path class="cls-67" d="M475.8 171.7l-16.6-8.9c-2.3-1.2-2-3.3.6-4.7l14.1-7.5c2.6-1.4 6.6-1.5 8.9-.3l16.6 8.9c2.3 1.2 2 3.3-.6 4.7l-14.1 7.5c-2.6 1.4-6.6 1.5-8.9.3z"/><path class="cls-68" d="M475.9 171.5l-16.4-8.7c-2.2-1.2-2-3.3.6-4.7l13.8-7.3c2.6-1.4 6.5-1.5 8.7-.3l16.4 8.7c2.2 1.2 2 3.3-.6 4.7l-13.8 7.3c-2.5 1.4-6.5 1.5-8.7.3z"/><path class="cls-69" d="M476 171.3l-16.1-8.6c-2.2-1.2-1.9-3.2.6-4.6l13.6-7.2c2.5-1.3 6.4-1.5 8.6-.3l16.1 8.6c2.2 1.2 1.9 3.2-.6 4.6l-13.7 7.2c-2.5 1.4-6.3 1.5-8.5.3z"/><path class="cls-70" d="M476 171.2l-15.8-8.4c-2.2-1.2-1.9-3.2.6-4.5l13.4-7.1c2.5-1.3 6.3-1.5 8.4-.3l15.8 8.4c2.2 1.2 1.9 3.2-.6 4.5l-13.4 7.1c-2.4 1.3-6.2 1.4-8.4.3z"/><path class="cls-71" d="M476.1 171l-15.5-8.3c-2.1-1.1-1.9-3.1.6-4.4l13.1-7c2.5-1.3 6.2-1.4 8.3-.3l15.5 8.3c2.1 1.1 1.9 3.1-.6 4.4l-13.1 7c-2.5 1.3-6.2 1.4-8.3.3z"/><path class="cls-72" d="M476.1 170.8l-15.2-8.1c-2.1-1.1-1.8-3.1.6-4.3l12.9-6.8c2.4-1.3 6.1-1.4 8.1-.3l15.2 8.1c2.1 1.1 1.8 3.1-.6 4.3l-12.9 6.8c-2.3 1.3-6 1.4-8.1.3z"/><path class="cls-73" d="M476.2 170.6l-14.9-8c-2-1.1-1.8-3 .6-4.2l12.6-6.7c2.4-1.3 5.9-1.4 8-.3l14.9 8c2 1.1 1.8 3-.6 4.2l-12.6 6.7c-2.4 1.3-6 1.4-8 .3z"/><path class="cls-74" d="M476.3 170.4l-14.7-7.8c-2-1.1-1.7-2.9.6-4.2l12.4-6.6a9.4 9.4 0 017.8-.3l14.7 7.8c2 1.1 1.7 2.9-.6 4.2l-12.4 6.6a9.4 9.4 0 01-7.8.3z"/><path class="cls-75" d="M476.3 170.2l-14.4-7.7c-2-1.1-1.7-2.9.6-4.1l12.2-6.4a9.2 9.2 0 017.7-.3l14.4 7.7c2 1.1 1.7 2.9-.6 4.1L484 170a9.2 9.2 0 01-7.7.2z"/><path class="cls-76" d="M476.4 170.1l-14.1-7.5c-1.9-1-1.7-2.8.5-4l11.9-6.3a9 9 0 017.5-.3l14.1 7.5c1.9 1 1.7 2.8-.5 4l-11.9 6.3a9 9 0 01-7.5.3z"/><path class="cls-77" d="M476.4 169.9l-13.8-7.4c-1.9-1-1.6-2.8.5-3.9l11.7-6.2a8.8 8.8 0 017.4-.3l13.8 7.4c1.9 1 1.6 2.8-.5 3.9l-11.7 6.2a8.8 8.8 0 01-7.4.3z"/><path class="cls-78" d="M476.5 169.7l-13.5-7.2c-1.8-1-1.6-2.7.5-3.8l11.4-6.1a8.6 8.6 0 017.2-.3l13.5 7.2c1.8 1 1.6 2.7-.5 3.8l-11.4 6.1a8.6 8.6 0 01-7.2.3z"/><path class="cls-79" d="M476.6 169.5l-13.2-7.1c-1.8-1-1.6-2.7.5-3.8l11.2-5.9a8.5 8.5 0 017.1-.3l13.2 7.1c1.8 1 1.6 2.7-.5 3.8l-11.2 5.9a8.5 8.5 0 01-7.1.3z"/><path class="cls-80" d="M476.6 169.3l-12.9-6.9c-1.8-.9-1.5-2.6.5-3.7l10.9-5.8a8.3 8.3 0 016.9-.3l12.9 6.9c1.8.9 1.5 2.6-.5 3.7l-10.9 5.8a8.3 8.3 0 01-6.9.3z"/><path class="cls-81" d="M476.7 169.1l-12.7-6.7c-1.7-.9-1.5-2.5.5-3.6l10.7-5.7a8.1 8.1 0 016.8-.2l12.7 6.8c1.7.9 1.5 2.5-.5 3.6l-10.7 5.7a8.1 8.1 0 01-6.8.1z"/><path class="cls-82" d="M476.7 169l-12.4-6.6c-1.7-.9-1.5-2.5.5-3.5l10.5-5.6a7.9 7.9 0 016.6-.2l12.4 6.6c1.7.9 1.5 2.5-.5 3.5l-10.5 5.6a7.9 7.9 0 01-6.6.2z"/><path class="cls-83" d="M476.8 168.8l-12.1-6.5c-1.7-.9-1.4-2.4.5-3.4l10.2-5.4a7.7 7.7 0 016.5-.2l12.1 6.5c1.7.9 1.4 2.4-.5 3.4l-10.2 5.4a7.7 7.7 0 01-6.5.2z"/><path class="cls-84" d="M476.9 168.6l-11.9-6.3c-1.6-.9-1.4-2.4.5-3.4l10-5.3a7.5 7.5 0 016.3-.2l11.8 6.3c1.6.9 1.4 2.4-.5 3.4l-10 5.3a7.5 7.5 0 01-6.2.2z"/><path class="cls-85" d="M476.9 168.4l-11.5-6.2c-1.6-.8-1.4-2.3.4-3.3l9.7-5.2a7.4 7.4 0 016.2-.2l11.5 6.2c1.6.8 1.4 2.3-.4 3.3l-9.7 5.2a7.4 7.4 0 01-6.2.2z"/><path class="cls-86" d="M477 168.2l-11.2-6c-1.5-.8-1.3-2.3.4-3.2l9.5-5a7.2 7.2 0 016-.2l11.2 6c1.5.8 1.3 2.3-.4 3.2l-9.5 5a7.2 7.2 0 01-6 .2z"/><path class="cls-87" d="M477 168l-11-5.9c-1.5-.8-1.3-2.2.4-3.1l9.3-4.9a7 7 0 015.9-.2l11 5.9c1.5.8 1.3 2.2-.4 3.1l-9.3 4.9a7 7 0 01-5.9.2z"/><path class="cls-88" d="M477.1 167.9l-10.7-5.7c-1.5-.8-1.3-2.1.4-3l9-4.8a6.8 6.8 0 015.7-.2l10.7 5.7c1.5.8 1.3 2.1-.4 3l-9 4.8a6.8 6.8 0 01-5.7.2z"/><path class="cls-89" d="M477.1 167.7l-10.4-5.6c-1.4-.8-1.2-2.1.4-3l8.8-4.7a6.6 6.6 0 015.6-.2l10.4 5.6c1.4.8 1.2 2.1-.4 3l-8.8 4.7a6.6 6.6 0 01-5.6.2z"/><path class="cls-90" d="M477.2 167.5l-10.1-5.4c-1.4-.7-1.2-2 .4-2.9l8.5-4.5a6.5 6.5 0 015.4-.2l10.1 5.4c1.4.7 1.2 2-.4 2.9l-8.5 4.5a6.5 6.5 0 01-5.4.2z"/><path class="cls-91" d="M477.3 167.3l-9.8-5.3c-1.3-.7-1.2-2 .4-2.8l8.3-4.4a6.3 6.3 0 015.2-.2l9.8 5.3c1.3.7 1.2 2-.4 2.8l-8.3 4.4a6.3 6.3 0 01-5.2.2z"/><path class="cls-92" d="M477.3 167.1l-9.5-5.1c-1.3-.7-1.1-1.9.4-2.7l8.1-4.3a6.1 6.1 0 015.1-.2l9.5 5.1c1.3.7 1.1 1.9-.4 2.7l-8.1 4.3a6.1 6.1 0 01-5.1.2z"/><path id="_Path_51" data-name="&lt;Path&gt;" class="cls-93" d="M477.4 166.9l-9.3-4.9c-1.3-.7-1.1-1.9.4-2.6l7.8-4.2a5.9 5.9 0 014.9-.2l9.3 4.9c1.3.7 1.1 1.9-.4 2.6l-7.8 4.2a5.9 5.9 0 01-4.9.2z"/></g><g id="_7-2" data-name="7"><g id="_Group_23" data-name="&lt;Group&gt;"><path id="_Path_52" data-name="&lt;Path&gt;" class="cls-94" d="M494.5 158.4v-36.9l-30.1-.5v36.6c-.1.3 0 .6.4.8l13.7 7.5a3.3 3.3 0 002.8-.1l12.6-6.5c.4-.3.6-.6.6-.9z"/><path id="_Path_53" data-name="&lt;Path&gt;" class="cls-94" d="M478.5 128.9l-13.7-7.5c-.7-.4-.6-1 .2-1.5l12.6-6.5a3.3 3.3 0 012.8-.1l13.7 7.5c.7.4.6 1-.2 1.5l-12.6 6.5a3.3 3.3 0 01-2.8.1z"/></g><path id="_Path_54" data-name="&lt;Path&gt;" class="cls-94" d="M478.9 125.7l-8.4-4.6c-.4-.2-.4-.6.1-.9l7.7-4a2 2 0 011.7 0l8.4 4.6c.4.2.4.6-.1.9l-7.7 4a2 2 0 01-1.7 0z"/><g id="_Group_24" data-name="&lt;Group&gt;"><path id="_Path_55" data-name="&lt;Path&gt;" class="cls-94" d="M476.1 154.8a1.6 1.6 0 00-.8-1.4l-10.2-5.5h-.6l-2.5 1.4 11.1 7.5 2.6-1.4h.2a.7.7 0 00.2-.6z"/><path id="_Path_56" data-name="&lt;Path&gt;" class="cls-94" d="M472.7 156.7l-10.2-5.5a1.6 1.6 0 01-.8-1.4c0-.5.4-.7.8-.5l10.2 5.5a1.6 1.6 0 01.8 1.4c0 .5-.4.7-.8.5z"/></g><g id="_Group_25" data-name="&lt;Group&gt;"><path id="_Path_57" data-name="&lt;Path&gt;" class="cls-94" d="M476.1 150.7a1.6 1.6 0 00-.8-1.4l-10.2-5.5h-.6l-2.5 1.4 11.1 7.5 2.6-1.4h.2a.7.7 0 00.2-.6z"/><path id="_Path_58" data-name="&lt;Path&gt;" class="cls-94" d="M472.7 152.6l-10.2-5.6a1.6 1.6 0 01-.8-1.4c0-.5.4-.7.8-.5l10.2 5.5a1.6 1.6 0 01.8 1.4c0 .6-.4.8-.8.6z"/></g><g id="_Group_26" data-name="&lt;Group&gt;"><path id="_Path_59" data-name="&lt;Path&gt;" class="cls-94" d="M476.1 146.5a1.6 1.6 0 00-.8-1.4l-10.2-5.5h-.6L462 141l11.1 7.5 2.6-1.4h.2a.7.7 0 00.2-.6z"/><path id="_Path_60" data-name="&lt;Path&gt;" class="cls-94" d="M472.7 148.5l-10.2-5.5a1.6 1.6 0 01-.8-1.4c0-.5.4-.7.8-.5l10.2 5.5a1.6 1.6 0 01.8 1.4c0 .5-.4.7-.8.5z"/></g><g id="_Group_27" data-name="&lt;Group&gt;"><path id="_Path_61" data-name="&lt;Path&gt;" class="cls-94" d="M476.1 142.4a1.6 1.6 0 00-.8-1.4l-10.2-5.5h-.6l-2.5 1.4 11.1 7.5 2.6-1.4h.2a.7.7 0 00.2-.6z"/><path id="_Path_62" data-name="&lt;Path&gt;" class="cls-94" d="M472.7 144.3l-10.2-5.5a1.6 1.6 0 01-.8-1.4c0-.5.4-.7.8-.5l10.2 5.5a1.6 1.6 0 01.8 1.4c0 .5-.4.8-.8.5z"/></g><g id="_Group_28" data-name="&lt;Group&gt;"><path id="_Path_63" data-name="&lt;Path&gt;" class="cls-94" d="M476.1 138.3a1.6 1.6 0 00-.8-1.4l-10.2-5.5h-.6l-2.5 1.4 11.1 7.5 2.6-1.4h.2a.7.7 0 00.2-.6z"/><path id="_Path_64" data-name="&lt;Path&gt;" class="cls-94" d="M472.7 140.2l-10.2-5.5a1.6 1.6 0 01-.8-1.4c0-.5.4-.7.8-.5l10.2 5.5a1.6 1.6 0 01.8 1.4c0 .5-.3.7-.8.5z"/></g><g id="_Group_29" data-name="&lt;Group&gt;"><path id="_Path_65" data-name="&lt;Path&gt;" class="cls-94" d="M476.1 134.1a1.6 1.6 0 00-.8-1.4l-10.2-5.5h-.6l-2.5 1.4 11.1 7.5 2.6-1.4h.2a.7.7 0 00.2-.6z"/><path id="_Path_66" data-name="&lt;Path&gt;" class="cls-94" d="M472.7 136.1l-10.2-5.5a1.6 1.6 0 01-.8-1.4c0-.5.4-.7.8-.5l10.2 5.5a1.6 1.6 0 01.8 1.4c0 .5-.3.7-.8.5z"/></g><path id="_Path_67" data-name="&lt;Path&gt;" class="cls-94" d="M470.5 121.2l1.4.8 6.4-3.3a2 2 0 011.7 0l7 3.8 1.3-.7c.5-.3.6-.7.1-.9l-8.4-4.6a2 2 0 00-1.7 0l-7.7 4c-.5.2-.5.6-.1.9z"/><g id="_Group_30" data-name="&lt;Group&gt;"><g id="_Group_31" data-name="&lt;Group&gt;"><path id="_Path_68" data-name="&lt;Path&gt;" class="cls-94" d="M492.3 129.1l-9.5 5.1v-1.4l9.5-5.1v1.4z"/><path id="_Path_69" data-name="&lt;Path&gt;" class="cls-94" d="M492.3 131.7l-2.9 1.6v-1.4l2.9-1.5v1.3z"/><path id="_Path_70" data-name="&lt;Path&gt;" class="cls-94" d="M488.3 133.9l-5.5 2.9v-1.4l5.5-2.9v1.4z"/><path id="_Path_71" data-name="&lt;Path&gt;" class="cls-94" d="M492.3 134.3l-6.8 3.6v-1.4l6.8-3.6v1.4z"/><path id="_Path_72" data-name="&lt;Path&gt;" class="cls-94" d="M484.4 138.5l-1.6.8V138l1.6-.9v1.4z"/><path id="_Path_73" data-name="&lt;Path&gt;" class="cls-94" d="M492.3 136.9l-9.5 5.1v-1.4l9.5-5.1v1.4z"/><path id="_Path_74" data-name="&lt;Path&gt;" class="cls-94" d="M492.3 139.5l-2.9 1.6v-1.4l2.9-1.5v1.3z"/><path id="_Path_75" data-name="&lt;Path&gt;" class="cls-94" d="M488.3 141.7l-5.5 2.9v-1.4l5.5-2.9v1.4z"/><path id="_Path_76" data-name="&lt;Path&gt;" class="cls-94" d="M492.3 142.1l-6.8 3.6v-1.4l6.8-3.6v1.4z"/><path id="_Path_77" data-name="&lt;Path&gt;" class="cls-94" d="M484.4 146.3l-1.6.8v-1.3l1.6-.9v1.4z"/><path id="_Path_78" data-name="&lt;Path&gt;" class="cls-94" d="M492.3 144.6l-9.5 5v-1.3l9.5-5.1v1.4z"/></g><path id="_Path_79" data-name="&lt;Path&gt;" class="cls-94" d="M492.3 147.2l-2.9 1.5v-1.3l2.9-1.6v1.4z"/><path id="_Path_80" data-name="&lt;Path&gt;" class="cls-94" d="M488.3 149.3l-5.5 3v-1.4l5.5-2.9v1.3z"/><path id="_Path_81" data-name="&lt;Path&gt;" class="cls-94" d="M492.3 149.7l-6.8 3.6V152l6.8-3.6v1.3z"/><path id="_Path_82" data-name="&lt;Path&gt;" class="cls-94" d="M484.4 153.9l-1.6.9v-1.4l1.6-.8v1.3z"/><path id="_Path_83" data-name="&lt;Path&gt;" class="cls-94" d="M492.3 152.4l-9.5 5v-1.3l9.5-5.1v1.4z"/></g></g></g><g id="_8-3" data-name="8" class="cls-50"><g id="_Group_32" data-name="&lt;Group&gt;" class="cls-51"><path id="_Path_84" data-name="&lt;Path&gt;" class="cls-52" d="M551.2 404.9l-20.9-11.2c-2.9-1.5-2.5-4.2.8-5.9l17.7-9.4c3.3-1.8 8.3-1.9 11.2-.4l20.9 11.2c2.9 1.5 2.5 4.2-.8 5.9l-17.7 9.4c-3.3 1.8-8.3 2-11.2.4z"/><path class="cls-53" d="M551.3 404.8l-20.6-11c-2.8-1.5-2.5-4.1.8-5.9l17.4-9.2c3.3-1.7 8.2-1.9 11-.4l20.6 11c2.8 1.5 2.5 4.1-.8 5.9l-17.4 9.2c-3.2 1.7-8.2 1.9-11 .4z"/><path class="cls-54" d="M551.4 404.6L531 393.7c-2.8-1.5-2.4-4.1.8-5.8l17.2-9.1c3.2-1.7 8.1-1.9 10.9-.4l20.3 10.9c2.8 1.5 2.4 4.1-.8 5.8l-17.2 9.1c-3.2 1.7-8.1 1.9-10.8.4z"/><path class="cls-55" d="M551.4 404.4l-20.1-10.7c-2.7-1.5-2.4-4 .8-5.7l17-9c3.2-1.7 8-1.9 10.7-.4l20.1 10.7c2.7 1.5 2.4 4-.8 5.7l-17 9c-3.1 1.7-7.9 1.9-10.7.4z"/><path class="cls-56" d="M551.5 404.2l-19.8-10.6c-2.7-1.4-2.4-4 .8-5.6l16.7-8.9c3.1-1.7 7.9-1.8 10.6-.4l19.8 10.6c2.7 1.4 2.4 4-.8 5.6l-16.8 8.9c-3.1 1.7-7.8 1.9-10.5.4z"/><path class="cls-57" d="M551.5 404L532 393.6c-2.7-1.4-2.3-3.9.8-5.5l16.5-8.7c3.1-1.6 7.7-1.8 10.4-.4l19.5 10.4c2.7 1.4 2.3 3.9-.8 5.5l-16.5 8.7c-3 1.7-7.7 1.9-10.4.4z"/><path class="cls-58" d="M551.6 403.8l-19.2-10.3c-2.6-1.4-2.3-3.8.7-5.5l16.2-8.6c3-1.6 7.6-1.8 10.3-.4l19.2 10.3c2.6 1.4 2.3 3.8-.7 5.5l-16.2 8.6c-3.1 1.7-7.7 1.9-10.3.4z"/><path class="cls-59" d="M551.7 403.7l-18.9-10.1c-2.6-1.4-2.3-3.8.7-5.4l16-8.5c3-1.6 7.5-1.8 10.1-.4l18.9 10.1c2.6 1.4 2.3 3.8-.7 5.4l-16 8.5c-3 1.6-7.6 1.7-10.1.4z"/><path class="cls-60" d="M551.7 403.5l-18.6-10c-2.5-1.4-2.2-3.7.7-5.3l15.8-8.4c2.9-1.6 7.4-1.7 10-.4l18.6 10c2.5 1.4 2.2 3.7-.7 5.3l-15.8 8.4c-3 1.6-7.4 1.7-10 .4z"/><path class="cls-61" d="M551.8 403.3l-18.3-9.8c-2.5-1.3-2.2-3.7.7-5.2l15.5-8.2c2.9-1.5 7.3-1.7 9.8-.4l18.3 9.8c2.5 1.3 2.2 3.7-.7 5.2l-15.5 8.2c-2.9 1.6-7.3 1.7-9.8.4z"/><path class="cls-62" d="M551.8 403.1l-18.1-9.7c-2.5-1.3-2.2-3.6.7-5.1l15.3-8.1c2.9-1.5 7.2-1.7 9.7-.4l18.1 9.7c2.5 1.3 2.2 3.6-.7 5.1l-15.3 8.1c-2.9 1.6-7.2 1.7-9.7.4z"/><path class="cls-63" d="M551.9 402.9l-17.8-9.5c-2.4-1.3-2.1-3.6.7-5.1l15-8c2.8-1.5 7.1-1.6 9.5-.3l17.8 9.5c2.4 1.3 2.1 3.6-.7 5.1l-15 8c-2.8 1.5-7.1 1.6-9.5.3z"/><path class="cls-64" d="M551.9 402.7l-17.5-9.4c-2.4-1.3-2.1-3.5.7-5l14.8-7.8c2.8-1.5 7-1.6 9.3-.3l17.5 9.4c2.4 1.3 2.1 3.5-.7 5l-14.8 7.8c-2.7 1.5-6.9 1.6-9.3.3z"/><path class="cls-65" d="M552 402.6l-17.2-9.2c-2.4-1.3-2.1-3.5.7-4.9l14.6-7.7c2.7-1.4 6.8-1.6 9.2-.3l17.2 9.2c2.4 1.3 2.1 3.5-.7 4.9l-14.6 7.7c-2.7 1.4-6.8 1.5-9.2.3z"/><path class="cls-66" d="M552.1 402.4l-16.9-9c-2.3-1.2-2-3.4.7-4.8l14.3-7.6c2.7-1.4 6.7-1.6 9-.3l16.9 9c2.3 1.2 2 3.4-.7 4.8l-14.3 7.6c-2.7 1.4-6.7 1.5-9 .3z"/><path class="cls-67" d="M552.1 402.2l-16.6-8.9c-2.3-1.2-2-3.3.6-4.7l14.1-7.5c2.6-1.4 6.6-1.5 8.9-.3l16.6 8.9c2.3 1.2 2 3.3-.6 4.7l-14.1 7.5c-2.6 1.4-6.6 1.5-8.9.3z"/><path class="cls-68" d="M552.2 402l-16.4-8.7c-2.2-1.2-2-3.3.6-4.7l13.8-7.3c2.6-1.4 6.5-1.5 8.7-.3l16.4 8.7c2.2 1.2 2 3.3-.6 4.7l-13.8 7.3c-2.6 1.4-6.5 1.5-8.7.3z"/><path class="cls-69" d="M552.2 401.8l-16.1-8.6c-2.2-1.2-1.9-3.2.6-4.6l13.6-7.2c2.5-1.3 6.4-1.5 8.6-.3l16.1 8.6c2.2 1.2 1.9 3.2-.6 4.6l-13.6 7.2c-2.5 1.4-6.4 1.5-8.6.3z"/><path class="cls-70" d="M552.3 401.7l-15.8-8.4c-2.2-1.2-1.9-3.2.6-4.5l13.4-7.1c2.5-1.3 6.3-1.5 8.4-.3l15.8 8.4c2.2 1.2 1.9 3.2-.6 4.5l-13.4 7.1c-2.5 1.3-6.2 1.4-8.4.3z"/><path class="cls-71" d="M552.4 401.5l-15.5-8.3c-2.1-1.1-1.9-3.1.6-4.4l13.1-7c2.5-1.3 6.2-1.4 8.3-.3l15.5 8.3c2.1 1.1 1.9 3.1-.6 4.4l-13.1 7c-2.5 1.3-6.2 1.4-8.3.3z"/><path class="cls-72" d="M552.4 401.3l-15.2-8.1c-2.1-1.1-1.8-3.1.6-4.3l12.9-6.8c2.4-1.3 6.1-1.4 8.1-.3l15.2 8.1c2.1 1.1 1.8 3.1-.6 4.3l-12.8 6.8c-2.4 1.3-6.1 1.4-8.2.3z"/><path class="cls-73" d="M552.5 401.1l-14.9-8c-2-1.1-1.8-3 .6-4.2l12.6-6.7c2.4-1.3 5.9-1.4 8-.3l14.9 8c2 1.1 1.8 3-.6 4.2l-12.6 6.7c-2.4 1.3-6 1.4-8 .3z"/><path class="cls-74" d="M552.5 400.9l-14.7-7.8c-2-1.1-1.7-2.9.6-4.2l12.4-6.6a9.4 9.4 0 017.8-.3l14.7 7.8c2 1.1 1.7 2.9-.6 4.2l-12.4 6.6a9.4 9.4 0 01-7.8.3z"/><path class="cls-75" d="M552.6 400.7l-14.4-7.7c-2-1.1-1.7-2.9.6-4.1l12.2-6.4a9.2 9.2 0 017.7-.3l14.4 7.7c2 1.1 1.7 2.9-.6 4.1l-12.2 6.4a9.2 9.2 0 01-7.7.3z"/><path class="cls-76" d="M552.7 400.6l-14.1-7.6c-1.9-1-1.7-2.8.5-4l11.9-6.3a9 9 0 017.5-.3l14.1 7.5c1.9 1 1.7 2.8-.5 4l-11.9 6.3a9 9 0 01-7.5.4z"/><path class="cls-77" d="M552.7 400.4l-13.8-7.4c-1.9-1-1.6-2.8.5-3.9l11.7-6.2a8.8 8.8 0 017.4-.3l13.8 7.4c1.9 1 1.6 2.8-.5 3.9l-11.7 6.2a8.8 8.8 0 01-7.4.3z"/><path class="cls-78" d="M552.8 400.2l-13.5-7.2c-1.8-1-1.6-2.7.5-3.8l11.4-6.1a8.6 8.6 0 017.2-.3L572 390c1.8 1 1.6 2.7-.5 3.8l-11.5 6.1a8.6 8.6 0 01-7.2.3z"/><path class="cls-79" d="M552.8 400l-13.2-7.1c-1.8-1-1.6-2.7.5-3.8l11.2-5.9a8.5 8.5 0 017.1-.3l13.2 7.1c1.8 1 1.6 2.7-.5 3.8l-11.2 5.9a8.5 8.5 0 01-7.1.3z"/><path class="cls-80" d="M552.9 399.8l-12.9-6.9c-1.8-.9-1.5-2.6.5-3.7l10.9-5.8a8.3 8.3 0 016.9-.3l12.9 6.9c1.8.9 1.5 2.6-.5 3.7l-10.9 5.8a8.3 8.3 0 01-6.9.3z"/><path class="cls-81" d="M553 399.6l-12.7-6.8c-1.7-.9-1.5-2.5.5-3.6l10.7-5.7a8.1 8.1 0 016.8-.2l12.7 6.8c1.7.9 1.5 2.5-.5 3.6l-10.7 5.7a8.1 8.1 0 01-6.8.2z"/><path class="cls-82" d="M553 399.5l-12.4-6.6c-1.7-.9-1.5-2.5.5-3.5l10.5-5.6a7.9 7.9 0 016.6-.2l12.4 6.6c1.7.9 1.5 2.5-.5 3.5l-10.5 5.6a7.9 7.9 0 01-6.6.2z"/><path class="cls-83" d="M553.1 399.3l-12.1-6.5c-1.7-.9-1.4-2.4.5-3.4l10.2-5.4a7.7 7.7 0 016.5-.2l12.1 6.5c1.7.9 1.4 2.4-.5 3.4l-10.3 5.3a7.7 7.7 0 01-6.4.3z"/><path class="cls-84" d="M553.1 399.1l-11.8-6.3c-1.6-.9-1.4-2.4.5-3.4l10-5.3a7.5 7.5 0 016.3-.2l11.8 6.3c1.6.9 1.4 2.4-.5 3.4l-10 5.3a7.5 7.5 0 01-6.3.2z"/><path class="cls-85" d="M553.2 398.9l-11.5-6.2c-1.6-.8-1.4-2.3.4-3.3l9.7-5.2a7.4 7.4 0 016.2-.2l11.5 6.2c1.6.8 1.4 2.3-.4 3.3l-9.7 5.2a7.4 7.4 0 01-6.2.2z"/><path class="cls-86" d="M553.3 398.7l-11.2-6c-1.5-.8-1.3-2.3.4-3.2l9.5-5a7.2 7.2 0 016-.2l11.2 6c1.5.8 1.3 2.3-.4 3.2l-9.5 5a7.2 7.2 0 01-6 .2z"/><path class="cls-87" d="M553.3 398.5l-11-5.9c-1.5-.8-1.3-2.2.4-3.1l9.3-4.9a7 7 0 015.9-.2l11 5.9c1.5.8 1.3 2.2-.4 3.1l-9.3 4.9a7 7 0 01-5.9.2z"/><path class="cls-88" d="M553.4 398.4l-10.7-5.7c-1.5-.8-1.3-2.1.4-3l9-4.8a6.8 6.8 0 015.7-.2l10.7 5.7c1.5.8 1.3 2.1-.4 3l-9 4.8a6.8 6.8 0 01-5.7.2z"/><path class="cls-89" d="M553.4 398.2l-10.4-5.6c-1.4-.8-1.2-2.1.4-3l8.8-4.7a6.6 6.6 0 015.6-.2l10.4 5.6c1.4.8 1.2 2.1-.4 3L559 398a6.6 6.6 0 01-5.6.2z"/><path class="cls-90" d="M553.5 398l-10.1-5.4c-1.4-.7-1.2-2 .4-2.9l8.5-4.5a6.5 6.5 0 015.4-.2l10.1 5.4c1.4.7 1.2 2-.4 2.9l-8.5 4.5a6.5 6.5 0 01-5.4.2z"/><path class="cls-91" d="M553.6 397.8l-9.8-5.3c-1.3-.7-1.2-2 .4-2.8l8.3-4.4a6.3 6.3 0 015.2-.2l9.8 5.3c1.3.7 1.2 2-.4 2.8l-8.3 4.4a6.3 6.3 0 01-5.2.2z"/><path class="cls-92" d="M553.6 397.6l-9.5-5.1c-1.3-.7-1.1-1.9.4-2.7l8.1-4.3a6.1 6.1 0 015.1-.2l9.5 5.1c1.3.7 1.1 1.9-.4 2.7l-8.1 4.3a6.1 6.1 0 01-5.1.2z"/><path id="_Path_85" data-name="&lt;Path&gt;" class="cls-93" d="M553.7 397.4l-9.3-4.9c-1.3-.7-1.1-1.9.4-2.6l7.8-4.2a5.9 5.9 0 014.9-.2l9.3 4.9c1.3.7 1.1 1.9-.4 2.6l-7.8 4.2a5.9 5.9 0 01-4.9.2z"/></g><g id="_7-3" data-name="7"><g id="_Group_33" data-name="&lt;Group&gt;"><path id="_Path_86" data-name="&lt;Path&gt;" class="cls-94" d="M570.8 388.9V352l-30.1-.5v36.6c-.1.3 0 .6.4.8l13.7 7.5a3.3 3.3 0 002.8-.1l12.6-6.5c.4-.3.6-.6.6-.9z"/><path id="_Path_87" data-name="&lt;Path&gt;" class="cls-94" d="M554.7 359.4l-13.7-7.5c-.7-.4-.6-1 .2-1.5l12.6-6.5a3.3 3.3 0 012.8-.1l13.7 7.5c.7.4.6 1-.2 1.5l-12.6 6.5a3.3 3.3 0 01-2.8.1z"/></g><path id="_Path_88" data-name="&lt;Path&gt;" class="cls-94" d="M555.2 356.2l-8.4-4.6c-.4-.2-.4-.6.1-.9l7.7-4a2 2 0 011.7 0l8.4 4.6c.4.2.4.6-.1.9l-7.7 4a2 2 0 01-1.7 0z"/><g id="_Group_34" data-name="&lt;Group&gt;"><path id="_Path_89" data-name="&lt;Path&gt;" class="cls-94" d="M552.4 385.3a1.6 1.6 0 00-.8-1.4l-10.2-5.5h-.6l-2.5 1.4 11.1 7.5 2.6-1.4h.2a.7.7 0 00.2-.6z"/><path id="_Path_90" data-name="&lt;Path&gt;" class="cls-94" d="M549 387.2l-10.2-5.5a1.6 1.6 0 01-.8-1.4c0-.5.4-.7.8-.5l10.2 5.5a1.6 1.6 0 01.8 1.4c0 .5-.4.7-.8.5z"/></g><g id="_Group_35" data-name="&lt;Group&gt;"><path id="_Path_91" data-name="&lt;Path&gt;" class="cls-94" d="M552.4 381.1a1.6 1.6 0 00-.8-1.4l-10.2-5.5h-.6l-2.5 1.4 11.1 7.5 2.6-1.4h.2a.7.7 0 00.2-.6z"/><path id="_Path_92" data-name="&lt;Path&gt;" class="cls-94" d="M549 383.1l-10.2-5.5a1.6 1.6 0 01-.8-1.4c0-.5.4-.7.8-.5l10.2 5.5a1.6 1.6 0 01.8 1.4c0 .5-.4.7-.8.5z"/></g><g id="_Group_36" data-name="&lt;Group&gt;"><path id="_Path_93" data-name="&lt;Path&gt;" class="cls-94" d="M552.4 377a1.6 1.6 0 00-.8-1.4l-10.2-5.5h-.6l-2.5 1.4 11.1 7.5 2.6-1.4h.2a.7.7 0 00.2-.6z"/><path id="_Path_94" data-name="&lt;Path&gt;" class="cls-94" d="M549 379l-10.2-5.5a1.6 1.6 0 01-.8-1.4c0-.5.4-.7.8-.5l10.2 5.5a1.6 1.6 0 01.8 1.4c0 .5-.4.7-.8.5z"/></g><g id="_Group_37" data-name="&lt;Group&gt;"><path id="_Path_95" data-name="&lt;Path&gt;" class="cls-94" d="M552.4 372.9a1.6 1.6 0 00-.8-1.4l-10.2-5.5h-.6l-2.5 1.4 11.1 7.5 2.6-1.4h.2a.7.7 0 00.2-.6z"/><path id="_Path_96" data-name="&lt;Path&gt;" class="cls-94" d="M549 374.8l-10.2-5.5a1.6 1.6 0 01-.8-1.4c0-.5.4-.7.8-.5l10.2 5.5a1.6 1.6 0 01.8 1.4c0 .5-.4.8-.8.5z"/></g><g id="_Group_38" data-name="&lt;Group&gt;"><path id="_Path_97" data-name="&lt;Path&gt;" class="cls-94" d="M552.4 368.8a1.6 1.6 0 00-.8-1.4l-10.2-5.5h-.6l-2.5 1.4 11.1 7.5 2.6-1.4h.2a.7.7 0 00.2-.6z"/><path id="_Path_98" data-name="&lt;Path&gt;" class="cls-94" d="M549 370.7l-10.2-5.5a1.6 1.6 0 01-.8-1.4c0-.5.4-.7.8-.5l10.2 5.5a1.6 1.6 0 01.8 1.4c0 .5-.4.7-.8.5z"/></g><g id="_Group_39" data-name="&lt;Group&gt;"><path id="_Path_99" data-name="&lt;Path&gt;" class="cls-94" d="M552.4 364.6a1.6 1.6 0 00-.8-1.4l-10.2-5.5h-.6l-2.5 1.4 11.1 7.5 2.6-1.4h.2a.7.7 0 00.2-.6z"/><path id="_Path_100" data-name="&lt;Path&gt;" class="cls-94" d="M549 366.6l-10.2-5.6a1.6 1.6 0 01-.8-1.4c0-.5.4-.7.8-.5l10.2 5.5a1.6 1.6 0 01.8 1.4c0 .6-.4.8-.8.6z"/></g><path id="_Path_101" data-name="&lt;Path&gt;" class="cls-94" d="M546.8 351.7l1.4.8 6.4-3.3a2 2 0 011.7 0l7 3.8 1.3-.7c.5-.3.6-.7.1-.9l-8.4-4.6a2 2 0 00-1.7 0l-7.7 4c-.5.2-.5.6-.1.9z"/><g id="_Group_40" data-name="&lt;Group&gt;"><g id="_Group_41" data-name="&lt;Group&gt;"><path id="_Path_102" data-name="&lt;Path&gt;" class="cls-94" d="M568.6 359.6l-9.5 5.1v-1.4l9.5-5.1v1.4z"/><path id="_Path_103" data-name="&lt;Path&gt;" class="cls-94" d="M568.6 362.2l-2.9 1.6v-1.4l2.9-1.5v1.3z"/><path id="_Path_104" data-name="&lt;Path&gt;" class="cls-94" d="M564.6 364.4l-5.5 2.9v-1.4l5.5-2.9v1.4z"/><path id="_Path_105" data-name="&lt;Path&gt;" class="cls-94" d="M568.6 364.8l-6.8 3.6V367l6.8-3.6v1.4z"/><path id="_Path_106" data-name="&lt;Path&gt;" class="cls-94" d="M560.7 369l-1.6.8v-1.3l1.6-.9v1.4z"/><path id="_Path_107" data-name="&lt;Path&gt;" class="cls-94" d="M568.6 367.4l-9.5 5.1v-1.4l9.5-5.1v1.4z"/><path id="_Path_108" data-name="&lt;Path&gt;" class="cls-94" d="M568.6 370l-2.9 1.6v-1.4l2.9-1.5v1.3z"/><path id="_Path_109" data-name="&lt;Path&gt;" class="cls-94" d="M564.6 372.2l-5.5 2.9v-1.4l5.5-2.9v1.4z"/><path id="_Path_110" data-name="&lt;Path&gt;" class="cls-94" d="M568.6 372.6l-6.8 3.6v-1.4l6.8-3.6v1.4z"/><path id="_Path_111" data-name="&lt;Path&gt;" class="cls-94" d="M560.7 376.8l-1.6.8v-1.3l1.6-.9v1.4z"/><path id="_Path_112" data-name="&lt;Path&gt;" class="cls-94" d="M568.6 375.1l-9.5 5v-1.3l9.5-5.1v1.4z"/></g><path id="_Path_113" data-name="&lt;Path&gt;" class="cls-94" d="M568.6 377.7l-2.9 1.5v-1.3l2.9-1.6v1.4z"/><path id="_Path_114" data-name="&lt;Path&gt;" class="cls-94" d="M564.6 379.8l-5.5 3v-1.4l5.5-2.9v1.3z"/><path id="_Path_115" data-name="&lt;Path&gt;" class="cls-94" d="M568.6 380.2l-6.8 3.6v-1.3l6.8-3.7v1.4z"/><path id="_Path_116" data-name="&lt;Path&gt;" class="cls-94" d="M560.7 384.4l-1.6.9v-1.4l1.6-.8v1.3z"/><path id="_Path_117" data-name="&lt;Path&gt;" class="cls-94" d="M568.6 382.9l-9.5 5v-1.3l9.5-5.1v1.4z"/></g></g></g><g id="_2-2" data-name="2"><g id="_Group_42" data-name="&lt;Group&gt;" class="cls-51"><path id="_Path_118" data-name="&lt;Path&gt;" class="cls-52" d="M327.2 302.3l-8.9-5c-1.2-.7-1.1-1.9.3-2.7l7.5-4.3a5.3 5.3 0 014.7-.2l8.9 5c1.2.7 1.1 1.9-.3 2.7l-7.5 4.3a5.3 5.3 0 01-4.7.2z"/><path class="cls-53" d="M327.2 302.2l-8.8-5c-1.2-.7-1.1-1.9.3-2.7l7.4-4.2a5.3 5.3 0 014.7-.2l8.8 5c1.2.7 1.1 1.9-.3 2.7l-7.4 4.2a5.3 5.3 0 01-4.7.2z"/><path class="cls-54" d="M327.2 302.1l-8.7-4.9c-1.2-.7-1-1.8.3-2.6l7.3-4.2a5.2 5.2 0 014.6-.2l8.7 4.9c1.2.7 1 1.8-.3 2.6l-7.3 4.2a5.2 5.2 0 01-4.6.2z"/><path class="cls-55" d="M327.2 302l-8.5-4.8c-1.2-.7-1-1.8.3-2.6l7.2-4.1a5.1 5.1 0 014.6-.2l8.5 4.8c1.2.7 1 1.8-.3 2.6l-7.2 4.1a5.1 5.1 0 01-4.6.2z"/><path class="cls-56" d="M327.3 301.9l-8.4-4.8c-1.2-.7-1-1.8.3-2.6l7.1-4a5.1 5.1 0 014.5-.2l8.4 4.8c1.2.7 1 1.8-.3 2.6l-7.1 4a5.1 5.1 0 01-4.5.2z"/><path class="cls-57" d="M327.3 301.9l-8.3-4.7c-1.1-.6-1-1.8.3-2.5l7-4a5 5 0 014.4-.2l8.3 4.7c1.1.6 1 1.8-.3 2.5l-7 4a5 5 0 01-4.4.2z"/><path class="cls-58" d="M327.3 301.8l-8.2-4.6c-1.1-.6-1-1.7.3-2.5l6.9-3.9a4.9 4.9 0 014.4-.2l8.2 4.6c1.1.6 1 1.7-.3 2.5l-6.9 3.9a4.9 4.9 0 01-4.4.2z"/><path class="cls-59" d="M327.3 301.7l-8.1-4.6c-1.1-.6-1-1.7.3-2.4l6.8-3.9a4.8 4.8 0 014.3-.2l8.1 4.6c1.1.6 1 1.7-.3 2.4l-6.8 3.9a4.8 4.8 0 01-4.3.2z"/><path class="cls-60" d="M327.4 301.6l-7.9-4.5c-1.1-.6-1-1.7.3-2.4l6.7-3.8a4.8 4.8 0 014.2-.2l7.9 4.5c1.1.6 1 1.7-.3 2.4l-6.7 3.8a4.8 4.8 0 01-4.2.2z"/><path class="cls-61" d="M327.4 301.5l-7.8-4.4c-1.1-.6-.9-1.7.3-2.4l6.6-3.8a4.7 4.7 0 014.2-.2l7.8 4.4c1.1.6.9 1.7-.3 2.4l-6.6 3.8a4.7 4.7 0 01-4.2.2z"/><path class="cls-62" d="M327.4 301.4l-7.7-4.4c-1.1-.6-.9-1.6.3-2.3l6.5-3.7a4.6 4.6 0 014.1-.2l7.7 4.4c1.1.6.9 1.6-.3 2.3l-6.5 3.7a4.6 4.6 0 01-4.1.2z"/><path class="cls-63" d="M327.4 301.4l-7.6-4.3c-1-.6-.9-1.6.3-2.3l6.4-3.6a4.5 4.5 0 014-.2l7.6 4.3c1 .6.9 1.6-.3 2.3l-6.4 3.6a4.5 4.5 0 01-4 .2z"/><path class="cls-64" d="M327.5 301.3l-7.4-4.2c-1-.6-.9-1.6.3-2.3l6.3-3.6a4.5 4.5 0 014-.2l7.4 4.2c1 .6.9 1.6-.3 2.3l-6.3 3.6a4.5 4.5 0 01-4 .2z"/><path class="cls-65" d="M327.5 301.2l-7.3-4.1c-1-.6-.9-1.6.3-2.2l6.2-3.5a4.4 4.4 0 013.9-.2l7.3 4.1c1 .6.9 1.6-.3 2.2l-6.2 3.5a4.4 4.4 0 01-3.9.2z"/><path class="cls-66" d="M327.5 301.1l-7.2-4.1c-1-.6-.9-1.5.3-2.2l6.1-3.5a4.3 4.3 0 013.8-.2l7.2 4.1c1 .6.9 1.5-.3 2.2l-6.1 3.5a4.3 4.3 0 01-3.8.2z"/><path class="cls-67" d="M327.5 301l-7.1-4c-1-.5-.8-1.5.3-2.1l6-3.4a4.3 4.3 0 013.8-.2l7.1 4c1 .5.8 1.5-.3 2.1l-6 3.4a4.3 4.3 0 01-3.8.2z"/><path class="cls-68" d="M327.6 300.9l-7-3.9c-1-.5-.8-1.5.3-2.1l5.9-3.3a4.2 4.2 0 013.7-.2l7 3.9c1 .5.8 1.5-.3 2.1l-5.9 3.3a4.2 4.2 0 01-3.7.2z"/><path class="cls-69" d="M327.6 300.9l-6.8-3.9c-.9-.5-.8-1.5.3-2.1l5.8-3.3a4.1 4.1 0 013.6-.2l6.8 3.9c.9.5.8 1.5-.3 2.1l-5.8 3.3a4.1 4.1 0 01-3.6.2z"/><path class="cls-70" d="M327.6 300.8l-6.7-3.8c-.9-.5-.8-1.4.3-2l5.7-3.2a4 4 0 013.6-.2l6.7 3.8c.9.5.8 1.4-.3 2l-5.7 3.2a4 4 0 01-3.6.2z"/><path class="cls-71" d="M327.6 300.7L321 297c-.9-.5-.8-1.4.2-2l5.6-3.2a4 4 0 013.5-.1l6.6 3.7c.9.5.8 1.4-.2 2l-5.6 3.2a4 4 0 01-3.5.1z"/><path class="cls-72" d="M327.7 300.6l-6.5-3.7c-.9-.5-.8-1.4.2-2l5.5-3.1a3.9 3.9 0 013.5-.1l6.5 3.7c.9.5.8 1.4-.2 2l-5.5 3.1a3.9 3.9 0 01-3.5.1z"/><path class="cls-73" d="M327.7 300.5l-6.4-3.6c-.9-.5-.8-1.4.2-1.9l5.4-3.1a3.8 3.8 0 013.4-.1l6.4 3.6c.9.5.8 1.4-.2 1.9l-5.4 3.1a3.8 3.8 0 01-3.4.1z"/><path class="cls-74" d="M327.7 300.4l-6.2-3.5c-.9-.5-.7-1.3.2-1.9l5.3-3a3.7 3.7 0 013.3-.1l6.2 3.5c.9.5.7 1.3-.2 1.9l-5.3 3a3.7 3.7 0 01-3.3.1z"/><path class="cls-75" d="M327.7 300.4l-6.1-3.5c-.8-.5-.7-1.3.2-1.9l5.2-2.9a3.7 3.7 0 013.3-.1l6.1 3.5c.8.5.7 1.3-.2 1.9l-5.2 2.9a3.7 3.7 0 01-3.3.1z"/><path class="cls-76" d="M327.8 300.3l-6-3.4c-.8-.5-.7-1.3.2-1.8l5-2.9a3.6 3.6 0 013.2-.1l6 3.4c.8.5.7 1.3-.2 1.8l-5 2.9a3.6 3.6 0 01-3.2.1z"/><path class="cls-77" d="M327.8 300.2l-5.9-3.3c-.8-.5-.7-1.3.2-1.8l4.9-2.8a3.5 3.5 0 013.1-.1l5.9 3.3c.8.5.7 1.3-.2 1.8l-4.9 2.8a3.5 3.5 0 01-3.1.1z"/><path class="cls-78" d="M327.8 300.1l-5.8-3.3c-.8-.4-.7-1.2.2-1.7l4.8-2.8a3.5 3.5 0 013.1-.1l5.8 3.3c.8.4.7 1.2-.2 1.7l-4.8 2.8a3.5 3.5 0 01-3.1.1z"/><path class="cls-79" d="M327.8 300l-5.6-3.2c-.8-.4-.7-1.2.2-1.7l4.7-2.7a3.4 3.4 0 013-.1l5.6 3.2c.8.4.7 1.2-.2 1.7l-4.7 2.7a3.4 3.4 0 01-3 .1z"/><path class="cls-80" d="M327.9 299.9l-5.5-3.1c-.8-.4-.7-1.2.2-1.7l4.6-2.7a3.3 3.3 0 012.9-.1l5.5 3.1c.8.4.7 1.2-.2 1.7l-4.6 2.7a3.3 3.3 0 01-2.9.1z"/><path class="cls-81" d="M327.9 299.9l-5.4-3.1c-.7-.4-.6-1.1.2-1.6l4.5-2.6a3.2 3.2 0 012.9-.1l5.4 3.1c.7.4.6 1.1-.2 1.6l-4.5 2.6a3.2 3.2 0 01-2.9.1z"/><path class="cls-82" d="M327.9 299.8l-5.3-3c-.7-.4-.6-1.1.2-1.6l4.4-2.5a3.2 3.2 0 012.8-.1l5.3 3c.7.4.6 1.1-.2 1.6l-4.4 2.5a3.2 3.2 0 01-2.8.1z"/><path class="cls-83" d="M327.9 299.7l-5.1-2.9c-.7-.4-.6-1.1.2-1.6l4.3-2.5a3.1 3.1 0 012.7-.1l5.1 2.9c.7.4.6 1.1-.2 1.6l-4.3 2.5a3.1 3.1 0 01-2.7.1z"/><path class="cls-84" d="M328 299.6l-5-2.8c-.7-.4-.6-1.1.2-1.5l4.2-2.4a3 3 0 012.7-.1l5 2.8c.7.4.6 1.1-.2 1.5l-4.2 2.4a3 3 0 01-2.7.1z"/><path class="cls-85" d="M328 299.5l-4.9-2.8c-.7-.4-.6-1 .2-1.5l4.1-2.4a2.9 2.9 0 012.6-.1l4.9 2.8c.7.4.6 1-.2 1.5l-4.1 2.4a2.9 2.9 0 01-2.6.1z"/><path class="cls-86" d="M328 299.4l-4.8-2.7c-.7-.4-.6-1 .2-1.5l4-2.3a2.9 2.9 0 012.6-.1l4.8 2.7c.7.4.6 1-.2 1.5l-4 2.3a2.9 2.9 0 01-2.6.1z"/><path class="cls-87" d="M328 299.4l-4.7-2.6c-.6-.4-.6-1 .2-1.4l3.9-2.2a2.8 2.8 0 012.5-.1l4.7 2.6c.6.4.6 1-.2 1.4l-3.9 2.2a2.8 2.8 0 01-2.5.1z"/><path class="cls-88" d="M328.1 299.3l-4.5-2.6c-.6-.4-.5-1 .2-1.4l3.8-2.2a2.7 2.7 0 012.4-.1l4.5 2.6c.6.4.5 1-.2 1.4l-3.8 2.2a2.7 2.7 0 01-2.4.1z"/><path class="cls-89" d="M328.1 299.2l-4.4-2.5c-.6-.3-.5-.9.2-1.3l3.7-2.1a2.7 2.7 0 012.4-.1l4.4 2.5c.6.3.5.9-.2 1.3l-3.7 2.1a2.7 2.7 0 01-2.4.1z"/><path class="cls-90" d="M328.1 299.1l-4.3-2.4c-.6-.3-.5-.9.2-1.3l3.6-2.1a2.6 2.6 0 012.3-.1l4.3 2.4c.6.3.5.9-.2 1.3l-3.6 2.1a2.6 2.6 0 01-2.3.1z"/><path class="cls-91" d="M328.1 299l-4.2-2.4c-.6-.3-.5-.9.2-1.3l3.5-2a2.5 2.5 0 012.2-.1l4.2 2.4c.6.3.5.9-.2 1.3l-3.5 2a2.5 2.5 0 01-2.2.1z"/><path class="cls-92" d="M328.2 298.9l-4.1-2.3c-.6-.3-.5-.9.2-1.2l3.4-2a2.4 2.4 0 012.2-.1l4.1 2.3c.6.3.5.9-.2 1.2l-3.4 2a2.4 2.4 0 01-2.2.1z"/><path id="_Path_119" data-name="&lt;Path&gt;" class="cls-93" d="M328.2 298.9l-3.9-2.2c-.5-.3-.5-.8.1-1.2l3.3-1.9a2.4 2.4 0 012.1-.1l3.9 2.2c.5.3.5.8-.1 1.2l-3.3 1.9a2.4 2.4 0 01-2.1.1z"/></g><g id="_Group_43" data-name="&lt;Group&gt;"><g id="_Group_44" data-name="&lt;Group&gt;"><path id="_Path_120" data-name="&lt;Path&gt;" class="cls-94" d="M334.8 295.1v-5.5l-11.7-.2v5.4a.3.3 0 00.2.3l5.3 3.1a1.2 1.2 0 001.1 0l4.9-2.7c.1-.1.2-.3.2-.4z"/><path id="_Path_121" data-name="&lt;Path&gt;" class="cls-94" d="M328.6 292.7l-5.3-3.1c-.3-.2-.2-.4.1-.6l4.9-2.7a1.2 1.2 0 011.1 0l5.3 3.1c.3.2.2.4-.1.6l-4.9 2.7a1.2 1.2 0 01-1.1 0z"/></g><g id="_Group_45" data-name="&lt;Group&gt;"><path id="_Path_122" data-name="&lt;Path&gt;" class="cls-94" d="M334.8 288.2v-2.4h-3.9l-1.6-.9a1.2 1.2 0 00-1.1 0l-1.4.8h-3.7v2.3a.3.3 0 00.2.3l5.3 3.1a1.2 1.2 0 001.1 0l4.9-2.7c.1-.2.2-.4.2-.5z"/><path id="_Path_123" data-name="&lt;Path&gt;" class="cls-94" d="M328.6 289l-5.3-3.1c-.3-.2-.2-.4.1-.6l4.9-2.7a1.2 1.2 0 011.1 0l5.3 3.1c.3.2.2.4-.1.6l-4.9 2.7a1.2 1.2 0 01-1.1 0z"/><path id="_Path_124" data-name="&lt;Path&gt;" class="cls-94" d="M328.7 287.7l-3.3-1.9c-.2-.1-.1-.3.1-.4l3-1.7a.7.7 0 01.7 0l3.3 1.9c.2.1.1.3-.1.4l-3 1.7a.7.7 0 01-.7 0z"/><path id="_Path_125" data-name="&lt;Path&gt;" class="cls-94" d="M325.5 285.8l.5.3 2.5-1.4a.7.7 0 01.7 0l2.7 1.6.5-.3c.2-.1.2-.3.1-.4l-3.3-1.9a.7.7 0 00-.7 0l-3 1.7c-.2.1-.2.3 0 .4z"/></g></g></g><g id="_2-3" data-name="2"><g id="_Group_46" data-name="&lt;Group&gt;" class="cls-51"><path id="_Path_126" data-name="&lt;Path&gt;" class="cls-52" d="M254 260.7l-8.9-5c-1.2-.7-1.1-1.9.3-2.7l7.5-4.3a5.3 5.3 0 014.7-.2l8.9 5c1.2.7 1.1 1.9-.3 2.7l-7.5 4.3a5.3 5.3 0 01-4.7.2z"/><path class="cls-53" d="M254 260.6l-8.8-5c-1.2-.7-1.1-1.9.3-2.7l7.4-4.2a5.3 5.3 0 014.7-.2l8.8 5c1.2.7 1.1 1.9-.3 2.7l-7.4 4.2a5.3 5.3 0 01-4.7.2z"/><path class="cls-54" d="M254 260.6l-8.7-4.9c-1.2-.7-1-1.8.3-2.6l7.3-4.2a5.2 5.2 0 014.6-.2l8.7 4.9c1.2.7 1 1.8-.3 2.6l-7.3 4.2a5.2 5.2 0 01-4.6.2z"/><path class="cls-55" d="M254 260.5l-8.5-4.8c-1.2-.7-1-1.8.3-2.6l7.2-4.1a5.1 5.1 0 014.6-.2l8.5 4.8c1.2.7 1 1.8-.3 2.6l-7.2 4.1a5.1 5.1 0 01-4.6.2z"/><path class="cls-56" d="M254.1 260.4l-8.4-4.8c-1.2-.7-1-1.8.3-2.6l7.1-4a5.1 5.1 0 014.5-.2l8.4 4.8c1.2.7 1 1.8-.3 2.6l-7.1 4a5.1 5.1 0 01-4.5.2z"/><path class="cls-57" d="M254.1 260.3l-8.3-4.7c-1.1-.6-1-1.8.3-2.5l7-4a5 5 0 014.4-.2l8.3 4.7c1.1.6 1 1.8-.3 2.5l-7 4a5 5 0 01-4.4.2z"/><path class="cls-58" d="M254.1 260.2l-8.2-4.6c-1.1-.6-1-1.7.3-2.5l6.9-3.9a4.9 4.9 0 014.4-.2l8.2 4.6c1.1.6 1 1.7-.3 2.5l-6.9 3.9a4.9 4.9 0 01-4.4.2z"/><path class="cls-59" d="M254.1 260.1l-8.1-4.6c-1.1-.6-1-1.7.3-2.4l6.8-3.9a4.8 4.8 0 014.3-.2l8.1 4.6c1.1.6 1 1.7-.3 2.4l-6.8 3.9a4.8 4.8 0 01-4.3.2z"/><path class="cls-60" d="M254.2 260.1l-7.9-4.5c-1.1-.6-1-1.7.3-2.4l6.7-3.8a4.8 4.8 0 014.2-.2l7.9 4.5c1.1.6 1 1.7-.3 2.4l-6.7 3.8a4.8 4.8 0 01-4.2.2z"/><path class="cls-61" d="M254.2 260l-7.8-4.4c-1.1-.6-.9-1.7.3-2.4l6.6-3.8a4.7 4.7 0 014.2-.2l7.8 4.4c1.1.6.9 1.7-.3 2.4l-6.6 3.8a4.7 4.7 0 01-4.2.2z"/><path class="cls-62" d="M254.2 259.9l-7.7-4.4c-1.1-.6-.9-1.6.3-2.3l6.5-3.7a4.6 4.6 0 014.1-.2l7.7 4.4c1.1.6.9 1.6-.3 2.3l-6.5 3.7a4.6 4.6 0 01-4.1.2z"/><path class="cls-63" d="M254.2 259.8l-7.6-4.3c-1-.6-.9-1.6.3-2.3l6.4-3.6a4.5 4.5 0 014-.2l7.6 4.3c1 .6.9 1.6-.3 2.3l-6.4 3.6a4.5 4.5 0 01-4 .2z"/><path class="cls-64" d="M254.3 259.7l-7.4-4.2c-1-.6-.9-1.6.3-2.3l6.3-3.6a4.5 4.5 0 014-.2l7.4 4.2c1 .6.9 1.6-.3 2.3l-6.3 3.6a4.5 4.5 0 01-4 .2z"/><path class="cls-65" d="M254.3 259.6l-7.3-4.1c-1-.6-.9-1.6.3-2.2l6.2-3.5a4.4 4.4 0 013.9-.2l7.3 4.1c1 .6.9 1.6-.3 2.2l-6.2 3.5a4.4 4.4 0 01-3.9.2z"/><path class="cls-66" d="M254.3 259.6l-7.2-4.1c-1-.6-.9-1.5.3-2.2l6.1-3.5a4.3 4.3 0 013.8-.2l7.2 4.1c1 .6.9 1.5-.3 2.2l-6.1 3.5a4.3 4.3 0 01-3.8.2z"/><path class="cls-67" d="M254.3 259.5l-7.1-4c-1-.5-.8-1.5.3-2.1l6-3.4a4.3 4.3 0 013.8-.2l7.1 4c1 .5.8 1.5-.3 2.1l-6 3.4a4.3 4.3 0 01-3.8.2z"/><path class="cls-68" d="M254.4 259.4l-7-3.9c-1-.5-.8-1.5.3-2.1l5.9-3.3a4.2 4.2 0 013.7-.2l7 3.9c1 .5.8 1.5-.3 2.1l-5.9 3.3a4.2 4.2 0 01-3.7.2z"/><path class="cls-69" d="M254.4 259.3l-6.8-3.9c-.9-.5-.8-1.5.3-2.1l5.8-3.3a4.1 4.1 0 013.6-.2l6.8 3.9c.9.5.8 1.5-.3 2.1l-5.8 3.3a4.1 4.1 0 01-3.6.2z"/><path class="cls-70" d="M254.4 259.2l-6.7-3.8c-.9-.5-.8-1.4.3-2l5.7-3.2a4 4 0 013.6-.2l6.7 3.8c.9.5.8 1.4-.3 2L258 259a4 4 0 01-3.6.2z"/><path class="cls-71" d="M254.4 259.1l-6.6-3.7c-.9-.5-.8-1.4.2-2l5.6-3.2a4 4 0 013.5-.1l6.6 3.7c.9.5.8 1.4-.2 2L258 259a4 4 0 01-3.6.1z"/><path class="cls-72" d="M254.5 259.1l-6.5-3.7c-.9-.5-.8-1.4.2-2l5.5-3.1a3.9 3.9 0 013.5-.1l6.5 3.7c.9.5.8 1.4-.2 2L258 259a3.9 3.9 0 01-3.5.1z"/><path class="cls-73" d="M254.5 259l-6.4-3.6c-.9-.5-.8-1.4.2-1.9l5.4-3.1a3.8 3.8 0 013.4-.1l6.4 3.6c.9.5.8 1.4-.2 1.9l-5.4 3.1a3.8 3.8 0 01-3.4.1z"/><path class="cls-74" d="M254.5 258.9l-6.2-3.5c-.9-.5-.7-1.3.2-1.9l5.3-3a3.7 3.7 0 013.3-.1l6.2 3.5c.9.5.7 1.3-.2 1.9l-5.3 3a3.7 3.7 0 01-3.3.1z"/><path class="cls-75" d="M254.5 258.8l-6.1-3.5c-.8-.5-.7-1.3.2-1.9l5.2-2.9a3.7 3.7 0 013.3-.1l6.1 3.5c.8.5.7 1.3-.2 1.9l-5.2 2.9a3.7 3.7 0 01-3.3.1z"/><path class="cls-76" d="M254.6 258.7l-6-3.4c-.8-.5-.7-1.3.2-1.8l5-2.9a3.6 3.6 0 013.2-.1l6 3.4c.8.5.7 1.3-.2 1.8l-5 2.9a3.6 3.6 0 01-3.2.1z"/><path class="cls-77" d="M254.6 258.7l-5.9-3.3c-.8-.5-.7-1.3.2-1.8l4.9-2.8a3.5 3.5 0 013.1-.1l5.9 3.3c.8.5.7 1.3-.2 1.8l-4.9 2.8a3.5 3.5 0 01-3.1.1z"/><path class="cls-78" d="M254.6 258.6l-5.8-3.3c-.8-.4-.7-1.2.2-1.7l4.8-2.8a3.5 3.5 0 013.1-.1l5.8 3.3c.8.4.7 1.2-.2 1.7l-4.8 2.8a3.5 3.5 0 01-3.1.1z"/><path class="cls-79" d="M254.6 258.5l-5.6-3.2c-.8-.4-.7-1.2.2-1.7l4.7-2.7a3.4 3.4 0 013-.1l5.6 3.2c.8.4.7 1.2-.2 1.7l-4.7 2.7a3.4 3.4 0 01-3 .1z"/><path class="cls-80" d="M254.7 258.4l-5.5-3.1c-.8-.4-.7-1.2.2-1.7l4.6-2.6a3.3 3.3 0 012.9-.1l5.5 3.1c.8.4.7 1.2-.2 1.7l-4.6 2.7a3.3 3.3 0 01-2.9 0z"/><path class="cls-81" d="M254.7 258.3l-5.4-3.1c-.7-.4-.6-1.1.2-1.6l4.5-2.6a3.2 3.2 0 012.9-.1l5.4 3.1c.7.4.6 1.1-.2 1.6l-4.5 2.6a3.2 3.2 0 01-2.9.1z"/><path class="cls-82" d="M254.7 258.2l-5.3-3c-.7-.4-.6-1.1.2-1.6l4.4-2.5a3.2 3.2 0 012.8-.1l5.3 3c.7.4.6 1.1-.2 1.6l-4.4 2.5a3.2 3.2 0 01-2.8.1z"/><path class="cls-83" d="M254.7 258.2l-5.1-2.9c-.7-.4-.6-1.1.2-1.6l4.3-2.5a3.1 3.1 0 012.7-.1l5.2 2.9c.7.4.6 1.1-.2 1.6l-4.3 2.5a3.1 3.1 0 01-2.8.1z"/><path class="cls-84" d="M254.8 258.1l-5-2.8c-.7-.4-.6-1.1.2-1.5l4.2-2.4a3 3 0 012.7-.1l5 2.8c.7.4.6 1.1-.2 1.5l-4.2 2.4a3 3 0 01-2.7.1z"/><path class="cls-85" d="M254.8 258l-4.9-2.8c-.7-.4-.6-1 .2-1.5l4.1-2.4a2.9 2.9 0 012.6-.1l4.9 2.8c.7.4.6 1-.2 1.5l-4.1 2.4a2.9 2.9 0 01-2.6.1z"/><path class="cls-86" d="M254.8 257.9l-4.8-2.7c-.7-.4-.6-1 .2-1.5l4-2.3a2.9 2.9 0 012.6-.1l4.8 2.7c.7.4.6 1-.2 1.5l-4 2.3a2.9 2.9 0 01-2.6.1z"/><path class="cls-87" d="M254.8 257.8l-4.7-2.6c-.6-.4-.6-1 .2-1.4l3.9-2.2a2.8 2.8 0 012.5-.1l4.7 2.6c.6.4.6 1-.2 1.4l-3.9 2.2a2.8 2.8 0 01-2.5.1z"/><path class="cls-88" d="M254.9 257.7l-4.5-2.6c-.6-.4-.5-1 .2-1.4l3.8-2.2a2.7 2.7 0 012.4-.1l4.5 2.6c.6.4.5 1-.2 1.4l-3.8 2.2a2.7 2.7 0 01-2.4.1z"/><path class="cls-89" d="M254.9 257.7l-4.4-2.5c-.6-.3-.5-.9.2-1.3l3.7-2.1a2.7 2.7 0 012.4-.1l4.4 2.5c.6.3.5.9-.2 1.3l-3.7 2.1a2.7 2.7 0 01-2.4.1z"/><path class="cls-90" d="M254.9 257.6l-4.3-2.4c-.6-.3-.5-.9.2-1.3l3.6-2.1a2.6 2.6 0 012.3-.1l4.3 2.4c.6.3.5.9-.2 1.3l-3.6 2.1a2.6 2.6 0 01-2.3.1z"/><path class="cls-91" d="M254.9 257.5l-4.2-2.4c-.6-.3-.5-.9.2-1.3l3.5-2a2.5 2.5 0 012.2-.1l4.2 2.4c.6.3.5.9-.2 1.3l-3.5 2a2.5 2.5 0 01-2.2.1z"/><path class="cls-92" d="M255 257.4l-4.1-2.3c-.6-.3-.5-.9.2-1.2l3.4-2a2.4 2.4 0 012.2-.1l4.1 2.3c.6.3.5.9-.2 1.2l-3.4 2a2.4 2.4 0 01-2.2.1z"/><path id="_Path_127" data-name="&lt;Path&gt;" class="cls-93" d="M255 257.3l-3.9-2.2c-.5-.3-.5-.8.1-1.2l3.3-1.9a2.4 2.4 0 012.1-.1l3.9 2.2c.5.3.5.8-.1 1.2l-3.3 1.9a2.4 2.4 0 01-2.1.1z"/></g><g id="_Group_47" data-name="&lt;Group&gt;"><g id="_Group_48" data-name="&lt;Group&gt;"><path id="_Path_128" data-name="&lt;Path&gt;" class="cls-94" d="M261.6 253.5V248l-11.7-.2v5.4a.3.3 0 00.2.3l5.3 3.1a1.2 1.2 0 001.1 0l4.9-2.7c.2-.1.2-.2.2-.4z"/><path id="_Path_129" data-name="&lt;Path&gt;" class="cls-94" d="M255.4 251.2l-5.3-3.1c-.3-.2-.2-.4.1-.6l4.9-2.7a1.2 1.2 0 011.1 0l5.3 3.1c.3.2.2.4-.1.6l-4.9 2.7a1.2 1.2 0 01-1.1 0z"/></g><g id="_Group_49" data-name="&lt;Group&gt;"><path id="_Path_130" data-name="&lt;Path&gt;" class="cls-94" d="M261.6 246.7v-2.4h-3.9l-1.6-.9a1.2 1.2 0 00-1.1 0l-1.4.8h-3.7v2.4a.3.3 0 00.2.3l5.3 3.1a1.2 1.2 0 001.1 0l4.9-2.7c.1-.4.2-.5.2-.6z"/><path id="_Path_131" data-name="&lt;Path&gt;" class="cls-94" d="M255.4 247.4l-5.3-3.1c-.3-.2-.2-.4.1-.6l4.8-2.7a1.2 1.2 0 011.1 0l5.3 3.1c.3.2.2.4-.1.6l-4.9 2.7a1.2 1.2 0 01-1 0z"/><path id="_Path_132" data-name="&lt;Path&gt;" class="cls-94" d="M255.6 246.1l-3.3-1.9c-.2-.1-.1-.3.1-.4l3-1.7a.7.7 0 01.7 0l3.3 1.9c.2.1.1.3-.1.4l-3 1.7a.7.7 0 01-.7 0z"/><path id="_Path_133" data-name="&lt;Path&gt;" class="cls-94" d="M252.3 244.2l.5.3 2.5-1.4a.7.7 0 01.7 0l2.7 1.6.5-.3c.2-.1.2-.3.1-.4l-3.3-1.9a.7.7 0 00-.7 0l-3 1.7c-.1.2-.2.3 0 .4z"/></g></g></g><g id="_2-4" data-name="2"><g id="_Group_50" data-name="&lt;Group&gt;" class="cls-51"><path id="_Path_134" data-name="&lt;Path&gt;" class="cls-52" d="M348.2 369.4l-8.9-5c-1.2-.7-1.1-1.9.3-2.7l7.5-4.3a5.3 5.3 0 014.7-.2l8.9 5c1.2.7 1.1 1.9-.3 2.7l-7.5 4.3a5.3 5.3 0 01-4.7.2z"/><path class="cls-53" d="M348.2 369.3l-8.8-5c-1.2-.7-1.1-1.9.3-2.7l7.4-4.2a5.3 5.3 0 014.7-.2l8.8 5c1.2.7 1.1 1.9-.3 2.7l-7.4 4.2a5.3 5.3 0 01-4.7.2z"/><path class="cls-54" d="M348.2 369.2l-8.7-4.9c-1.2-.7-1-1.8.3-2.6l7.3-4.2a5.2 5.2 0 014.6-.2l8.7 4.9c1.2.7 1 1.8-.3 2.6l-7.3 4.2a5.2 5.2 0 01-4.6.2z"/><path class="cls-55" d="M348.2 369.1l-8.5-4.8c-1.2-.7-1-1.8.3-2.6l7.2-4.1a5.1 5.1 0 014.6-.2l8.5 4.8c1.2.7 1 1.8-.3 2.6l-7.2 4.1a5.1 5.1 0 01-4.6.2z"/><path class="cls-56" d="M348.3 369l-8.4-4.8c-1.2-.7-1-1.8.3-2.6l7.1-4a5.1 5.1 0 014.5-.2l8.4 4.8c1.2.7 1 1.8-.3 2.6l-7.1 4a5.1 5.1 0 01-4.5.2z"/><path class="cls-57" d="M348.3 368.9l-8.3-4.7c-1.1-.6-1-1.8.3-2.5l7-4a5 5 0 014.4-.2l8.3 4.7c1.1.6 1 1.8-.3 2.5l-7 4a5 5 0 01-4.4.2z"/><path class="cls-58" d="M348.3 368.9l-8.2-4.6c-1.1-.6-1-1.7.3-2.5l6.9-3.9a4.9 4.9 0 014.4-.2l8.2 4.6c1.1.6 1 1.7-.3 2.5l-6.9 3.9a4.9 4.9 0 01-4.4.2z"/><path class="cls-59" d="M348.3 368.8l-8.1-4.6c-1.1-.6-1-1.7.3-2.4l6.8-3.9a4.8 4.8 0 014.3-.2l8.1 4.6c1.1.6 1 1.7-.3 2.4l-6.8 3.9a4.8 4.8 0 01-4.3.2z"/><path class="cls-60" d="M348.4 368.7l-7.9-4.5c-1.1-.6-1-1.7.3-2.4l6.7-3.8a4.8 4.8 0 014.2-.2l7.9 4.5c1.1.6 1 1.7-.3 2.4l-6.7 3.8a4.8 4.8 0 01-4.2.2z"/><path class="cls-61" d="M348.4 368.6l-7.8-4.4c-1.1-.6-.9-1.7.3-2.4l6.6-3.8a4.7 4.7 0 014.2-.2l7.8 4.4c1.1.6.9 1.7-.3 2.4l-6.6 3.8a4.7 4.7 0 01-4.2.2z"/><path class="cls-62" d="M348.4 368.5l-7.7-4.4c-1.1-.6-.9-1.6.3-2.3l6.5-3.7a4.6 4.6 0 014.1-.2l7.7 4.4c1.1.6.9 1.6-.3 2.3l-6.5 3.7a4.6 4.6 0 01-4.1.2z"/><path class="cls-63" d="M348.4 368.4l-7.6-4.3c-1-.6-.9-1.6.3-2.3l6.4-3.6a4.5 4.5 0 014-.2l7.6 4.3c1 .6.9 1.6-.3 2.3l-6.4 3.6a4.5 4.5 0 01-4 .2z"/><path class="cls-64" d="M348.5 368.4l-7.4-4.2c-1-.6-.9-1.6.3-2.3l6.3-3.6a4.5 4.5 0 014-.2l7.4 4.2c1 .6.9 1.6-.3 2.3l-6.3 3.6a4.5 4.5 0 01-4 .2z"/><path class="cls-65" d="M348.5 368.3l-7.3-4.1c-1-.6-.9-1.6.3-2.2l6.2-3.5a4.4 4.4 0 013.9-.2l7.3 4.1c1 .6.9 1.6-.3 2.2l-6.2 3.5a4.4 4.4 0 01-3.9.2z"/><path class="cls-66" d="M348.5 368.2l-7.2-4.1c-1-.6-.9-1.5.3-2.2l6.1-3.5a4.3 4.3 0 013.8-.2l7.2 4.1c1 .6.9 1.5-.3 2.2l-6.1 3.5a4.3 4.3 0 01-3.8.2z"/><path class="cls-67" d="M348.5 368.1l-7.1-4c-1-.5-.8-1.5.3-2.1l6-3.4a4.3 4.3 0 013.8-.2l7.1 4c1 .5.8 1.5-.3 2.1l-6 3.4a4.3 4.3 0 01-3.8.2z"/><path class="cls-68" d="M348.6 368l-7-3.9c-1-.5-.8-1.5.3-2.1l5.9-3.3a4.2 4.2 0 013.7-.2l7 3.9c1 .5.8 1.5-.3 2.1l-5.9 3.3a4.2 4.2 0 01-3.7.2z"/><path class="cls-69" d="M348.6 367.9l-6.8-3.9c-.9-.5-.8-1.5.3-2.1l5.8-3.3a4.1 4.1 0 013.6-.2l6.8 3.9c.9.5.8 1.5-.3 2.1l-5.8 3.3a4.1 4.1 0 01-3.6.2z"/><path class="cls-70" d="M348.6 367.9l-6.7-3.8c-.9-.5-.8-1.4.3-2l5.7-3.2a4 4 0 013.6-.2l6.7 3.8c.9.5.8 1.4-.3 2l-5.7 3.2a4 4 0 01-3.6.2z"/><path class="cls-71" d="M348.6 367.8L342 364c-.9-.5-.8-1.4.2-2l5.6-3.2a4 4 0 013.5-.1l6.6 3.7c.9.5.8 1.4-.2 2l-5.6 3.2a4 4 0 01-3.5.2z"/><path class="cls-72" d="M348.7 367.7l-6.5-3.7c-.9-.5-.8-1.4.2-2l5.5-3.1a3.9 3.9 0 013.5-.1l6.5 3.7c.9.5.8 1.4-.2 2l-5.5 3.1a3.9 3.9 0 01-3.5.1z"/><path class="cls-73" d="M348.7 367.6l-6.4-3.6c-.9-.5-.8-1.4.2-1.9l5.4-3.1a3.8 3.8 0 013.4-.1l6.4 3.6c.9.5.8 1.4-.2 1.9l-5.4 3.1a3.8 3.8 0 01-3.4.1z"/><path class="cls-74" d="M348.7 367.5l-6.2-3.5c-.9-.5-.7-1.3.2-1.9l5.3-3a3.7 3.7 0 013.3-.1l6.2 3.5c.9.5.7 1.3-.2 1.9l-5.3 3a3.7 3.7 0 01-3.3.1z"/><path class="cls-75" d="M348.7 367.4l-6.1-3.5c-.8-.5-.7-1.3.2-1.9l5.2-2.9a3.7 3.7 0 013.3-.1l6.1 3.5c.8.5.7 1.3-.2 1.9l-5.2 2.9a3.7 3.7 0 01-3.3.1z"/><path class="cls-76" d="M348.8 367.4l-6-3.4c-.8-.5-.7-1.3.2-1.8l5-2.9a3.6 3.6 0 013.2-.1l6 3.4c.8.5.7 1.3-.2 1.8l-5 2.9a3.6 3.6 0 01-3.2.1z"/><path class="cls-77" d="M348.8 367.3l-5.9-3.3c-.8-.5-.7-1.3.2-1.8l4.9-2.8a3.5 3.5 0 013.1-.1l5.9 3.3c.8.5.7 1.3-.2 1.8l-4.9 2.8a3.5 3.5 0 01-3.1.1z"/><path class="cls-78" d="M348.8 367.2l-5.8-3.3c-.8-.4-.7-1.2.2-1.7l4.8-2.8a3.5 3.5 0 013.1-.1l5.8 3.3c.8.4.7 1.2-.2 1.7l-4.8 2.8a3.5 3.5 0 01-3.1.1z"/><path class="cls-79" d="M348.8 367.1l-5.6-3.2c-.8-.4-.7-1.2.2-1.7l4.7-2.7a3.4 3.4 0 013-.1l5.6 3.2c.8.4.7 1.2-.2 1.7l-4.7 2.7a3.4 3.4 0 01-3 .1z"/><path class="cls-80" d="M348.9 367l-5.5-3.1c-.8-.4-.7-1.2.2-1.7l4.6-2.7a3.3 3.3 0 012.9-.1l5.5 3.1c.8.4.7 1.2-.2 1.7l-4.6 2.7a3.3 3.3 0 01-2.9.1z"/><path class="cls-81" d="M348.9 366.9l-5.4-3.1c-.7-.4-.6-1.1.2-1.6l4.5-2.6a3.2 3.2 0 012.9-.1l5.4 3.1c.7.4.6 1.1-.2 1.6l-4.5 2.6a3.2 3.2 0 01-2.9.1z"/><path class="cls-82" d="M348.9 366.9l-5.3-3c-.7-.4-.6-1.1.2-1.6l4.4-2.5a3.2 3.2 0 012.8-.1l5.3 3c.7.4.6 1.1-.2 1.6l-4.4 2.5a3.2 3.2 0 01-2.8.1z"/><path class="cls-83" d="M348.9 366.8l-5.1-2.9c-.7-.4-.6-1.1.2-1.6l4.3-2.5a3.1 3.1 0 012.7-.1l5.1 2.9c.7.4.6 1.1-.2 1.6l-4.3 2.5a3.1 3.1 0 01-2.7.1z"/><path class="cls-84" d="M349 366.7l-5-2.8c-.7-.4-.6-1.1.2-1.5l4.2-2.4a3 3 0 012.7-.1l5 2.8c.7.4.6 1.1-.2 1.5l-4.2 2.4a3 3 0 01-2.7.1z"/><path class="cls-85" d="M349 366.6l-4.9-2.8c-.7-.4-.6-1 .2-1.5l4.1-2.4a2.9 2.9 0 012.6-.1l4.9 2.8c.7.4.6 1-.2 1.5l-4.1 2.4a2.9 2.9 0 01-2.6.1z"/><path class="cls-86" d="M349 366.5l-4.8-2.7c-.7-.4-.6-1 .2-1.5l4-2.3a2.9 2.9 0 012.6-.1l4.8 2.7c.7.4.6 1-.2 1.5l-4 2.3a2.9 2.9 0 01-2.6.1z"/><path class="cls-87" d="M349 366.4l-4.7-2.6c-.6-.4-.6-1 .2-1.4l3.9-2.2a2.8 2.8 0 012.5-.1l4.7 2.6c.6.4.6 1-.2 1.4l-3.9 2.2a2.8 2.8 0 01-2.5.1z"/><path class="cls-88" d="M349.1 366.4l-4.5-2.6c-.6-.4-.5-1 .2-1.4l3.8-2.2a2.7 2.7 0 012.4-.1l4.5 2.6c.6.4.5 1-.2 1.4l-3.8 2.2a2.7 2.7 0 01-2.4.1z"/><path class="cls-89" d="M349.1 366.3l-4.4-2.5c-.6-.3-.5-.9.2-1.3l3.7-2.1a2.7 2.7 0 012.4-.1l4.4 2.5c.6.3.5.9-.2 1.3l-3.7 2.1a2.7 2.7 0 01-2.4.1z"/><path class="cls-90" d="M349.1 366.2l-4.3-2.4c-.6-.3-.5-.9.2-1.3l3.6-2.1a2.6 2.6 0 012.3-.1l4.3 2.4c.6.3.5.9-.2 1.3l-3.6 2.1a2.6 2.6 0 01-2.3.1z"/><path class="cls-91" d="M349.1 366.1l-4.2-2.4c-.6-.3-.5-.9.2-1.3l3.5-2a2.5 2.5 0 012.2-.1l4.2 2.4c.6.3.5.9-.2 1.3l-3.5 2a2.5 2.5 0 01-2.2.1z"/><path class="cls-92" d="M349.2 366l-4.1-2.3c-.6-.3-.5-.9.2-1.2l3.4-2a2.4 2.4 0 012.2-.1l4.1 2.3c.6.3.5.9-.2 1.2l-3.4 2a2.4 2.4 0 01-2.2.1z"/><path id="_Path_135" data-name="&lt;Path&gt;" class="cls-93" d="M349.2 365.9l-3.9-2.2c-.5-.3-.5-.8.1-1.2l3.3-1.9a2.4 2.4 0 012.1-.1l3.9 2.2c.5.3.5.8-.1 1.2l-3.3 1.9a2.4 2.4 0 01-2.1.1z"/></g><g id="_Group_51" data-name="&lt;Group&gt;"><g id="_Group_52" data-name="&lt;Group&gt;"><path id="_Path_136" data-name="&lt;Path&gt;" class="cls-94" d="M355.8 362.2v-5.5l-11.7-.2v5.4a.3.3 0 00.2.3l5.3 3.1a1.2 1.2 0 001.1 0l4.9-2.7c.2-.2.2-.3.2-.4z"/><path id="_Path_137" data-name="&lt;Path&gt;" class="cls-94" d="M349.6 359.8l-5.3-3.1c-.3-.2-.2-.4.1-.6l4.9-2.7a1.2 1.2 0 011.1 0l5.3 3.1c.3.2.2.4-.1.6l-4.9 2.7a1.2 1.2 0 01-1.1 0z"/></g><g id="_Group_53" data-name="&lt;Group&gt;"><path id="_Path_138" data-name="&lt;Path&gt;" class="cls-94" d="M355.8 355.3v-2.4h-3.9l-1.6-.9a1.2 1.2 0 00-1.1 0l-1.4.8h-3.7v2.4a.3.3 0 00.2.3l5.3 3.1a1.2 1.2 0 001.1 0l4.9-2.7c.1-.4.2-.5.2-.6z"/><path id="_Path_139" data-name="&lt;Path&gt;" class="cls-94" d="M349.6 356l-5.3-3.1c-.3-.2-.2-.4.1-.6l4.9-2.7a1.2 1.2 0 011.1 0l5.3 3.1c.3.2.2.4-.1.6l-4.9 2.7a1.2 1.2 0 01-1.1 0z"/><path id="_Path_140" data-name="&lt;Path&gt;" class="cls-94" d="M349.8 354.7l-3.3-1.9c-.2-.1-.1-.3.1-.4l3-1.7a.7.7 0 01.7 0l3.3 1.9c.2.1.1.3-.1.4l-3 1.7a.7.7 0 01-.7 0z"/><path id="_Path_141" data-name="&lt;Path&gt;" class="cls-94" d="M346.5 352.9l.5.3 2.5-1.4a.7.7 0 01.7 0l2.7 1.6.5-.3c.2-.1.2-.3.1-.4l-3.3-1.9a.7.7 0 00-.7 0l-3 1.7c-.1.1-.2.3 0 .4z"/></g></g></g></g></g></svg>